<?xml version="1.0" encoding="UTF-8" standalone="no"?>
<!DOCTYPE svg PUBLIC "-//W3C//DTD SVG 1.1//EN"
 "http://www.w3.org/Graphics/SVG/1.1/DTD/svg11.dtd">
<!-- Generated by graphviz version 12.1.0 (0)
 -->
<!-- Title: workflow_transitions Pages: 1 -->
<svg width="707pt" height="616pt"
 viewBox="0.00 0.00 707.00 615.94" xmlns="http://www.w3.org/2000/svg" xmlns:xlink="http://www.w3.org/1999/xlink">
<g id="graph0" class="graph" transform="scale(1 1) rotate(0) translate(4 611.94)">
<title>workflow_transitions</title>
<polygon fill="white" stroke="none" points="-4,4 -4,-611.94 703,-611.94 703,4 -4,4"/>
<!-- start -->
<g id="node1" class="node">
<title>start</title>
<ellipse fill="none" stroke="black" cx="298" cy="-575.99" rx="27.95" ry="27.95"/>
<ellipse fill="none" stroke="black" cx="298" cy="-575.99" rx="31.95" ry="31.95"/>
<text text-anchor="middle" x="298" y="-570.19" font-family="Helvetica,Arial,sans-serif" font-size="14.00">start</text>
</g>
<!-- new -->
<g id="node7" class="node">
<title>new</title>
<ellipse fill="none" stroke="black" cx="298" cy="-475.05" rx="27" ry="18"/>
<text text-anchor="middle" x="298" y="-469.25" font-family="Helvetica,Arial,sans-serif" font-size="14.00">new</text>
</g>
<!-- start&#45;&gt;new -->
<g id="edge1" class="edge">
<title>start&#45;&gt;new</title>
<path fill="none" stroke="black" d="M298,-543.69C298,-531.2 298,-516.92 298,-504.72"/>
<polygon fill="black" stroke="black" points="301.5,-504.85 298,-494.85 294.5,-504.85 301.5,-504.85"/>
<text text-anchor="middle" x="323.5" y="-512.75" font-family="Helvetica,Arial,sans-serif" font-size="14.00">importer</text>
</g>
<!-- read -->
<g id="node2" class="node">
<title>read</title>
<polygon fill="none" stroke="black" points="268,-406.05 214,-406.05 214,-370.05 268,-370.05 268,-406.05"/>
<text text-anchor="middle" x="241" y="-382.25" font-family="Helvetica,Arial,sans-serif" font-size="14.00">read</text>
</g>
<!-- assessing -->
<g id="node3" class="node">
<title>assessing</title>
<polygon fill="none" stroke="black" points="427,-319.05 351,-319.05 351,-283.05 427,-283.05 427,-319.05"/>
<text text-anchor="middle" x="389" y="-295.25" font-family="Helvetica,Arial,sans-serif" font-size="14.00">assessing</text>
</g>
<!-- read&#45;&gt;assessing -->
<g id="edge17" class="edge">
<title>read&#45;&gt;assessing</title>
<path fill="none" stroke="black" d="M268.44,-374.73C282.06,-368.36 298.62,-360.22 313,-352.05 321.21,-347.38 338.32,-336.17 354.23,-325.54"/>
<polygon fill="black" stroke="black" points="355.77,-328.72 362.13,-320.25 351.87,-322.91 355.77,-328.72"/>
<text text-anchor="middle" x="352.07" y="-338.75" font-family="Helvetica,Arial,sans-serif" font-size="14.00">editor</text>
</g>
<!-- delete -->
<g id="node6" class="node">
<title>delete</title>
<polygon fill="none" stroke="black" points="226,-232.05 172,-232.05 172,-196.05 226,-196.05 226,-232.05"/>
<text text-anchor="middle" x="199" y="-208.25" font-family="Helvetica,Arial,sans-serif" font-size="14.00">delete</text>
</g>
<!-- read&#45;&gt;delete -->
<g id="edge18" class="edge">
<title>read&#45;&gt;delete</title>
<path fill="none" stroke="black" d="M237.94,-369.6C234.14,-348.83 227.17,-313.15 219,-283.05 216.79,-274.91 215.47,-273.11 213,-265.05 210.84,-258 208.64,-250.36 206.63,-243.22"/>
<polygon fill="black" stroke="black" points="210.03,-242.39 203.99,-233.69 203.29,-244.26 210.03,-242.39"/>
<text text-anchor="middle" x="273.23" y="-295.25" font-family="Helvetica,Arial,sans-serif" font-size="14.00">editor, reviewer</text>
</g>
<!-- read&#45;&gt;new -->
<g id="edge19" class="edge">
<title>read&#45;&gt;new</title>
<path fill="none" stroke="black" d="M260.92,-406.42C266.26,-411.72 271.73,-417.8 276,-424.05 280.68,-430.88 284.72,-438.87 288.03,-446.44"/>
<polygon fill="black" stroke="black" points="284.75,-447.67 291.75,-455.62 291.24,-445.04 284.75,-447.67"/>
<text text-anchor="middle" x="301.11" y="-425.75" font-family="Helvetica,Arial,sans-serif" font-size="14.00">editor</text>
</g>
<!-- assessing&#45;&gt;read -->
<g id="edge9" class="edge">
<title>assessing&#45;&gt;read</title>
<path fill="none" stroke="black" d="M350.68,-314.64C346.07,-316.13 341.43,-317.63 337,-319.05 311.39,-327.22 301.29,-321.65 279.25,-337.05 270.4,-343.23 262.68,-352.09 256.54,-360.64"/>
<polygon fill="black" stroke="black" points="253.78,-358.48 251.14,-368.74 259.6,-362.36 253.78,-358.48"/>
<text text-anchor="middle" x="296.12" y="-338.75" font-family="Helvetica,Arial,sans-serif" font-size="14.00">editor</text>
</g>
<!-- review -->
<g id="node4" class="node">
<title>review</title>
<polygon fill="none" stroke="black" points="403.5,-36 348.5,-36 348.5,0 403.5,0 403.5,-36"/>
<text text-anchor="middle" x="376" y="-12.2" font-family="Helvetica,Arial,sans-serif" font-size="14.00">review</text>
</g>
<!-- assessing&#45;&gt;review -->
<g id="edge10" class="edge">
<title>assessing&#45;&gt;review</title>
<path fill="none" stroke="black" d="M417,-282.67C433.46,-270.7 452.81,-253.17 462,-232.05 468.38,-217.37 463.31,-211.99 462,-196.05 457.99,-147.09 466.44,-130.69 444,-87 435.43,-70.31 421.28,-55.17 408.1,-43.43"/>
<polygon fill="black" stroke="black" points="410.68,-41.03 400.8,-37.21 406.14,-46.36 410.68,-41.03"/>
<text text-anchor="middle" x="477.81" y="-164.75" font-family="Helvetica,Arial,sans-serif" font-size="14.00">editor</text>
</g>
<!-- assessing&#45;&gt;delete -->
<g id="edge7" class="edge">
<title>assessing&#45;&gt;delete</title>
<path fill="none" stroke="black" d="M350.51,-287.88C333.05,-281.84 312.36,-273.93 294.5,-265.05 283.4,-259.53 281.81,-256.1 271,-250.05 260.06,-243.92 247.9,-237.77 236.72,-232.37"/>
<polygon fill="black" stroke="black" points="238.29,-229.24 227.76,-228.1 235.28,-235.56 238.29,-229.24"/>
<text text-anchor="middle" x="340.25" y="-251.75" font-family="Helvetica,Arial,sans-serif" font-size="14.00">editor, reviewer</text>
</g>
<!-- assessing&#45;&gt;new -->
<g id="edge8" class="edge">
<title>assessing&#45;&gt;new</title>
<path fill="none" stroke="black" d="M383.53,-319.45C380.27,-329.2 375.84,-341.48 371,-352.05 352.53,-392.4 345.46,-401.38 322,-439.05 320.01,-442.24 317.87,-445.54 315.7,-448.8"/>
<polygon fill="black" stroke="black" points="312.88,-446.72 310.14,-456.96 318.66,-450.66 312.88,-446.72"/>
<text text-anchor="middle" x="387.57" y="-382.25" font-family="Helvetica,Arial,sans-serif" font-size="14.00">importer</text>
</g>
<!-- review&#45;&gt;read -->
<g id="edge24" class="edge">
<title>review&#45;&gt;read</title>
<path fill="none" stroke="black" d="M348.14,-20.01C273.38,-23.37 71.43,-37 33,-87 -47.81,-192.13 64.08,-272.27 170,-352.05 180.07,-359.63 192.03,-366.27 203.24,-371.67"/>
<polygon fill="black" stroke="black" points="201.75,-374.83 212.3,-375.83 204.67,-368.47 201.75,-374.83"/>
<text text-anchor="middle" x="58.08" y="-208.25" font-family="Helvetica,Arial,sans-serif" font-size="14.00">reviewer</text>
</g>
<!-- review&#45;&gt;assessing -->
<g id="edge21" class="edge">
<title>review&#45;&gt;assessing</title>
<path fill="none" stroke="black" d="M403.69,-31.07C415.57,-37 429.17,-44.84 440,-54 482.08,-89.58 487.8,-109.09 499,-163.05 508.9,-210.72 494.43,-231.64 459,-265.05 452.61,-271.08 444.97,-276.29 437.14,-280.72"/>
<polygon fill="black" stroke="black" points="435.77,-277.49 428.52,-285.22 439.01,-283.7 435.77,-277.49"/>
<text text-anchor="middle" x="547.1" y="-164.75" font-family="Helvetica,Arial,sans-serif" font-size="14.00">reviewer, editor</text>
</g>
<!-- archived -->
<g id="node5" class="node">
<title>archived</title>
<polygon fill="none" stroke="black" points="272.5,-134.02 205.5,-134.02 205.5,-98.02 272.5,-98.02 272.5,-134.02"/>
<text text-anchor="middle" x="239" y="-110.22" font-family="Helvetica,Arial,sans-serif" font-size="14.00">archived</text>
</g>
<!-- review&#45;&gt;archived -->
<g id="edge20" class="edge">
<title>review&#45;&gt;archived</title>
<path fill="none" stroke="black" d="M359.03,-36.28C348.58,-46.45 334.61,-59.19 321,-69 309.09,-77.59 295.42,-85.82 282.71,-92.89"/>
<polygon fill="black" stroke="black" points="281.21,-89.72 274.09,-97.57 284.55,-95.87 281.21,-89.72"/>
<text text-anchor="middle" x="364.08" y="-55.7" font-family="Helvetica,Arial,sans-serif" font-size="14.00">reviewer</text>
</g>
<!-- review&#45;&gt;delete -->
<g id="edge22" class="edge">
<title>review&#45;&gt;delete</title>
<path fill="none" stroke="black" d="M387.84,-36.37C392.91,-45.89 397.04,-57.97 394,-69 379.02,-123.4 373.98,-143.98 329,-178.05 302.51,-198.11 265.34,-206.68 237.53,-210.34"/>
<polygon fill="black" stroke="black" points="237.28,-206.84 227.74,-211.45 238.08,-213.8 237.28,-206.84"/>
<text text-anchor="middle" x="414.36" y="-110.22" font-family="Helvetica,Arial,sans-serif" font-size="14.00">reviewer</text>
</g>
<!-- review&#45;&gt;new -->
<g id="edge23" class="edge">
<title>review&#45;&gt;new</title>
<path fill="none" stroke="black" d="M403.83,-22.77C473.15,-32.92 648,-63.63 648,-115.02 648,-389.05 648,-389.05 648,-389.05 648,-452.55 427.64,-468.79 336.62,-472.79"/>
<polygon fill="black" stroke="black" points="336.53,-469.29 326.68,-473.2 336.82,-476.29 336.53,-469.29"/>
<text text-anchor="middle" x="673.5" y="-251.75" font-family="Helvetica,Arial,sans-serif" font-size="14.00">importer</text>
</g>
<!-- archived&#45;&gt;read -->
<g id="edge5" class="edge">
<title>archived&#45;&gt;read</title>
<path fill="none" stroke="black" d="M216.48,-134.47C206.61,-142.64 195.21,-152.8 186,-163.05 152.57,-200.24 125.92,-216.65 138.5,-265.05 149.64,-307.89 156.76,-319.72 187,-352.05 191.96,-357.35 197.88,-362.21 203.95,-366.52"/>
<polygon fill="black" stroke="black" points="201.97,-369.4 212.24,-371.98 205.82,-363.56 201.97,-369.4"/>
<text text-anchor="middle" x="157.25" y="-251.75" font-family="Helvetica,Arial,sans-serif" font-size="14.00">admin</text>
</g>
<!-- archived&#45;&gt;assessing -->
<g id="edge2" class="edge">
<title>archived&#45;&gt;assessing</title>
<path fill="none" stroke="black" d="M272.76,-129.33C290.84,-137.07 312.68,-148.39 329,-163.05 363.39,-193.93 371.46,-206.17 386,-250.05 388.24,-256.81 389.36,-264.38 389.83,-271.53"/>
<polygon fill="black" stroke="black" points="386.33,-271.55 390.09,-281.46 393.33,-271.37 386.33,-271.55"/>
<text text-anchor="middle" x="418.94" y="-208.25" font-family="Helvetica,Arial,sans-serif" font-size="14.00">admin, editor</text>
</g>
<!-- archived&#45;&gt;review -->
<g id="edge6" class="edge">
<title>archived&#45;&gt;review</title>
<path fill="none" stroke="black" d="M206.94,-97.68C188.76,-85.61 171.95,-69.06 184.5,-54 203.49,-31.23 286.38,-23.23 336.68,-20.45"/>
<polygon fill="black" stroke="black" points="336.77,-23.95 346.59,-19.96 336.42,-16.96 336.77,-23.95"/>
<text text-anchor="middle" x="252.75" y="-55.7" font-family="Helvetica,Arial,sans-serif" font-size="14.00">admin, editor, reviewer</text>
</g>
<!-- archived&#45;&gt;delete -->
<g id="edge3" class="edge">
<title>archived&#45;&gt;delete</title>
<path fill="none" stroke="black" d="M214.59,-134.46C205.91,-142.13 197.14,-151.93 192.5,-163.05 189.7,-169.75 189.4,-177.36 190.27,-184.59"/>
<polygon fill="black" stroke="black" points="186.83,-185.2 192.22,-194.32 193.69,-183.82 186.83,-185.2"/>
<text text-anchor="middle" x="238.25" y="-164.75" font-family="Helvetica,Arial,sans-serif" font-size="14.00">editor, reviewer</text>
</g>
<!-- archived&#45;&gt;new -->
<g id="edge4" class="edge">
<title>archived&#45;&gt;new</title>
<path fill="none" stroke="black" d="M218.15,-134.43C212.8,-138.32 206.88,-142.15 201,-145.05 200.43,-145.33 24.47,-195.62 24,-196.05 2.58,-215.48 0,-227.62 0,-256.55 0,-389.05 0,-389.05 0,-389.05 0,-442.5 179.58,-464.19 259.93,-471.21"/>
<polygon fill="black" stroke="black" points="259.26,-474.67 269.52,-472.02 259.85,-467.69 259.26,-474.67"/>
<text text-anchor="middle" x="25.5" y="-295.25" font-family="Helvetica,Arial,sans-serif" font-size="14.00">importer</text>
</g>
<!-- delete&#45;&gt;read -->
<g id="edge14" class="edge">
<title>delete&#45;&gt;read</title>
<path fill="none" stroke="black" d="M190.7,-232.51C181.86,-253.61 170.55,-289.91 181.5,-319.05 187.58,-335.23 199.46,-350.09 211.01,-361.76"/>
<polygon fill="black" stroke="black" points="208.54,-364.24 218.19,-368.62 213.38,-359.18 208.54,-364.24"/>
<text text-anchor="middle" x="200.25" y="-295.25" font-family="Helvetica,Arial,sans-serif" font-size="14.00">admin</text>
</g>
<!-- delete&#45;&gt;assessing -->
<g id="edge13" class="edge">
<title>delete&#45;&gt;assessing</title>
<path fill="none" stroke="black" d="M205.06,-232.11C209.92,-243.27 217.88,-257.19 229.5,-265.05 269.63,-292.18 289.96,-271.49 337,-283.05 337.83,-283.25 338.67,-283.46 339.51,-283.68"/>
<polygon fill="black" stroke="black" points="338.54,-287.04 349.11,-286.36 340.42,-280.3 338.54,-287.04"/>
<text text-anchor="middle" x="248.25" y="-251.75" font-family="Helvetica,Arial,sans-serif" font-size="14.00">admin</text>
</g>
<!-- delete&#45;&gt;review -->
<g id="edge15" class="edge">
<title>delete&#45;&gt;review</title>
<path fill="none" stroke="black" d="M185.48,-195.74C176.14,-182.64 164.54,-163.77 159.5,-145.05 148.8,-105.34 143.02,-78.57 176,-54 200.92,-35.44 286.34,-25.85 337.13,-21.67"/>
<polygon fill="black" stroke="black" points="337.13,-25.18 346.82,-20.91 336.58,-18.2 337.13,-25.18"/>
<text text-anchor="middle" x="178.25" y="-110.22" font-family="Helvetica,Arial,sans-serif" font-size="14.00">admin</text>
</g>
<!-- delete&#45;&gt;archived -->
<g id="edge12" class="edge">
<title>delete&#45;&gt;archived</title>
<path fill="none" stroke="black" d="M226.23,-209.77C245.92,-205.83 271.21,-197.14 284,-178.05 292.13,-165.9 284.74,-152.81 273.77,-141.88"/>
<polygon fill="black" stroke="black" points="276.24,-139.39 266.44,-135.35 271.58,-144.62 276.24,-139.39"/>
<text text-anchor="middle" x="306.19" y="-164.75" font-family="Helvetica,Arial,sans-serif" font-size="14.00">admin</text>
</g>
<!-- end -->
<g id="node8" class="node">
<title>end</title>
<ellipse fill="none" stroke="black" cx="71" cy="-116.02" rx="25.02" ry="25.02"/>
<ellipse fill="none" stroke="black" cx="71" cy="-116.02" rx="29.02" ry="29.02"/>
<text text-anchor="middle" x="71" y="-110.22" font-family="Helvetica,Arial,sans-serif" font-size="14.00">end</text>
</g>
<!-- delete&#45;&gt;end -->
<g id="edge11" class="edge">
<title>delete&#45;&gt;end</title>
<path fill="none" stroke="black" d="M171.65,-209.56C149.52,-205.44 118.81,-196.63 98.5,-178.05 91.69,-171.81 86.46,-163.57 82.48,-155.17"/>
<polygon fill="black" stroke="black" points="85.73,-153.87 78.67,-145.97 79.27,-156.55 85.73,-153.87"/>
<text text-anchor="middle" x="117.25" y="-164.75" font-family="Helvetica,Arial,sans-serif" font-size="14.00">admin</text>
</g>
<!-- new&#45;&gt;read -->
<g id="edge16" class="edge">
<title>new&#45;&gt;read</title>
<path fill="none" stroke="black" d="M274.41,-465.55C262.56,-459.96 249.26,-451.36 242.25,-439.05 238.63,-432.68 237.26,-425.09 237.04,-417.77"/>
<polygon fill="black" stroke="black" points="240.54,-417.99 237.48,-407.84 233.55,-417.68 240.54,-417.99"/>
<text text-anchor="middle" x="259.12" y="-425.75" font-family="Helvetica,Arial,sans-serif" font-size="14.00">editor</text>
</g>
</g>
</svg>
