<?xml version="1.0" encoding="UTF-8" standalone="no"?>
<!DOCTYPE svg PUBLIC "-//W3C//DTD SVG 1.1//EN"
 "http://www.w3.org/Graphics/SVG/1.1/DTD/svg11.dtd">
<!-- Generated by graphviz version 2.43.0 (0)
 -->
<!-- Title: workflow_transitions Pages: 1 -->
<svg width="709pt" height="618pt"
 viewBox="0.00 0.00 709.00 617.89" xmlns="http://www.w3.org/2000/svg" xmlns:xlink="http://www.w3.org/1999/xlink">
<g id="graph0" class="graph" transform="scale(1 1) rotate(0) translate(4 613.89)">
<title>workflow_transitions</title>
<polygon fill="white" stroke="transparent" points="-4,4 -4,-613.89 705,-613.89 705,4 -4,4"/>
<!-- start -->
<g id="node1" class="node">
<title>start</title>
<ellipse fill="none" stroke="black" cx="299" cy="-577.29" rx="28.68" ry="28.68"/>
<ellipse fill="none" stroke="black" cx="299" cy="-577.29" rx="32.7" ry="32.7"/>
<text text-anchor="middle" x="299" y="-573.59" font-family="Helvetica,Arial,sans-serif" font-size="14.00">start</text>
</g>
<!-- new -->
<g id="node7" class="node">
<title>new</title>
<ellipse fill="none" stroke="black" cx="299" cy="-475.7" rx="27" ry="18"/>
<text text-anchor="middle" x="299" y="-472" font-family="Helvetica,Arial,sans-serif" font-size="14.00">new</text>
</g>
<!-- start&#45;&gt;new -->
<g id="edge1" class="edge">
<title>start&#45;&gt;new</title>
<path fill="none" stroke="black" d="M299,-544.51C299,-531.47 299,-516.54 299,-504.01"/>
<polygon fill="black" stroke="black" points="302.5,-503.72 299,-493.72 295.5,-503.72 302.5,-503.72"/>
<text text-anchor="middle" x="325" y="-515.5" font-family="Helvetica,Arial,sans-serif" font-size="14.00">importer</text>
</g>
<!-- read -->
<g id="node2" class="node">
<title>read</title>
<polygon fill="none" stroke="black" points="269,-406.7 215,-406.7 215,-370.7 269,-370.7 269,-406.7"/>
<text text-anchor="middle" x="242" y="-385" font-family="Helvetica,Arial,sans-serif" font-size="14.00">read</text>
</g>
<!-- assessing -->
<g id="node3" class="node">
<title>assessing</title>
<polygon fill="none" stroke="black" points="429.5,-319.7 352.5,-319.7 352.5,-283.7 429.5,-283.7 429.5,-319.7"/>
<text text-anchor="middle" x="391" y="-298" font-family="Helvetica,Arial,sans-serif" font-size="14.00">assessing</text>
</g>
<!-- read&#45;&gt;assessing -->
<g id="edge17" class="edge">
<title>read&#45;&gt;assessing</title>
<path fill="none" stroke="black" d="M269.08,-375.5C282.75,-369.1 299.48,-360.9 314,-352.7 318.47,-350.17 337.96,-337.51 356.22,-325.56"/>
<polygon fill="black" stroke="black" points="358.56,-328.21 365,-319.8 354.72,-322.36 358.56,-328.21"/>
<text text-anchor="middle" x="353" y="-341.5" font-family="Helvetica,Arial,sans-serif" font-size="14.00">editor</text>
</g>
<!-- delete -->
<g id="node6" class="node">
<title>delete</title>
<polygon fill="none" stroke="black" points="227,-232.7 173,-232.7 173,-196.7 227,-196.7 227,-232.7"/>
<text text-anchor="middle" x="200" y="-211" font-family="Helvetica,Arial,sans-serif" font-size="14.00">delete</text>
</g>
<!-- read&#45;&gt;delete -->
<g id="edge18" class="edge">
<title>read&#45;&gt;delete</title>
<path fill="none" stroke="black" d="M239,-370.62C235.22,-349.9 228.22,-313.97 220,-283.7 217.79,-275.56 216.47,-273.76 214,-265.7 211.71,-258.23 209.37,-250.09 207.27,-242.59"/>
<polygon fill="black" stroke="black" points="210.63,-241.59 204.59,-232.88 203.88,-243.45 210.63,-241.59"/>
<text text-anchor="middle" x="275" y="-298" font-family="Helvetica,Arial,sans-serif" font-size="14.00">editor, reviewer</text>
</g>
<!-- read&#45;&gt;new -->
<g id="edge19" class="edge">
<title>read&#45;&gt;new</title>
<path fill="none" stroke="black" d="M261.56,-406.71C267.01,-412.09 272.63,-418.31 277,-424.7 281.89,-431.85 286.1,-440.27 289.48,-448.14"/>
<polygon fill="black" stroke="black" points="286.34,-449.7 293.32,-457.68 292.83,-447.09 286.34,-449.7"/>
<text text-anchor="middle" x="303" y="-428.5" font-family="Helvetica,Arial,sans-serif" font-size="14.00">editor</text>
</g>
<!-- assessing&#45;&gt;read -->
<g id="edge9" class="edge">
<title>assessing&#45;&gt;read</title>
<path fill="none" stroke="black" d="M352.23,-315.18C347.44,-316.71 342.61,-318.24 338,-319.7 312.26,-327.82 302.11,-322.21 280,-337.7 270.89,-344.07 263.01,-353.31 256.82,-362.11"/>
<polygon fill="black" stroke="black" points="253.78,-360.36 251.21,-370.64 259.63,-364.21 253.78,-360.36"/>
<text text-anchor="middle" x="297" y="-341.5" font-family="Helvetica,Arial,sans-serif" font-size="14.00">editor</text>
</g>
<!-- review -->
<g id="node4" class="node">
<title>review</title>
<polygon fill="none" stroke="black" points="405,-36 349,-36 349,0 405,0 405,-36"/>
<text text-anchor="middle" x="377" y="-14.3" font-family="Helvetica,Arial,sans-serif" font-size="14.00">review</text>
</g>
<!-- assessing&#45;&gt;review -->
<g id="edge10" class="edge">
<title>assessing&#45;&gt;review</title>
<path fill="none" stroke="black" d="M418.26,-283.5C434.58,-271.49 453.88,-253.85 463,-232.7 469.33,-218 464.3,-212.64 463,-196.7 458.99,-147.45 467.55,-130.96 445,-87 436.27,-69.99 421.74,-54.59 408.35,-42.76"/>
<polygon fill="black" stroke="black" points="410.54,-40.03 400.65,-36.23 406.01,-45.37 410.54,-40.03"/>
<text text-anchor="middle" x="478" y="-167.5" font-family="Helvetica,Arial,sans-serif" font-size="14.00">editor</text>
</g>
<!-- assessing&#45;&gt;delete -->
<g id="edge7" class="edge">
<title>assessing&#45;&gt;delete</title>
<path fill="none" stroke="black" d="M352.37,-287.62C330.48,-280.01 305.43,-270.91 295,-265.7 284.08,-260.24 282.62,-256.71 272,-250.7 260.66,-244.28 247.97,-237.86 236.44,-232.32"/>
<polygon fill="black" stroke="black" points="237.62,-229 227.08,-227.88 234.62,-235.32 237.62,-229"/>
<text text-anchor="middle" x="341" y="-254.5" font-family="Helvetica,Arial,sans-serif" font-size="14.00">editor, reviewer</text>
</g>
<!-- assessing&#45;&gt;new -->
<g id="edge8" class="edge">
<title>assessing&#45;&gt;new</title>
<path fill="none" stroke="black" d="M385.08,-320.07C381.6,-329.8 376.92,-342.08 372,-352.7 353.44,-392.77 347.54,-402.33 324,-439.7 321.67,-443.39 319.1,-447.23 316.52,-450.94"/>
<polygon fill="black" stroke="black" points="313.54,-449.1 310.6,-459.28 319.24,-453.16 313.54,-449.1"/>
<text text-anchor="middle" x="389" y="-385" font-family="Helvetica,Arial,sans-serif" font-size="14.00">importer</text>
</g>
<!-- review&#45;&gt;read -->
<g id="edge24" class="edge">
<title>review&#45;&gt;read</title>
<path fill="none" stroke="black" d="M348.87,-20.02C273.91,-23.42 72.43,-37.1 34,-87 -47.07,-192.26 64.87,-272.77 171,-352.7 181.38,-360.51 193.77,-367.33 205.28,-372.82"/>
<polygon fill="black" stroke="black" points="204.12,-376.14 214.67,-377.11 207.03,-369.77 204.12,-376.14"/>
<text text-anchor="middle" x="61" y="-211" font-family="Helvetica,Arial,sans-serif" font-size="14.00">reviewer</text>
</g>
<!-- review&#45;&gt;assessing -->
<g id="edge21" class="edge">
<title>review&#45;&gt;assessing</title>
<path fill="none" stroke="black" d="M405.11,-31.72C416.56,-37.61 429.53,-45.26 440,-54 482.48,-89.5 488.13,-109.42 499,-163.7 508.56,-211.44 494.23,-232.08 459,-265.7 453.12,-271.3 446.17,-276.23 439,-280.48"/>
<polygon fill="black" stroke="black" points="436.93,-277.62 429.85,-285.5 440.3,-283.75 436.93,-277.62"/>
<text text-anchor="middle" x="547" y="-167.5" font-family="Helvetica,Arial,sans-serif" font-size="14.00">reviewer, editor</text>
</g>
<!-- archived -->
<g id="node5" class="node">
<title>archived</title>
<polygon fill="none" stroke="black" points="275,-134.35 207,-134.35 207,-98.35 275,-98.35 275,-134.35"/>
<text text-anchor="middle" x="241" y="-112.65" font-family="Helvetica,Arial,sans-serif" font-size="14.00">archived</text>
</g>
<!-- review&#45;&gt;archived -->
<g id="edge20" class="edge">
<title>review&#45;&gt;archived</title>
<path fill="none" stroke="black" d="M360,-36.24C349.54,-46.39 335.57,-59.13 322,-69 310.09,-77.66 296.42,-86.02 283.74,-93.2"/>
<polygon fill="black" stroke="black" points="281.77,-90.29 274.73,-98.2 285.17,-96.41 281.77,-90.29"/>
<text text-anchor="middle" x="365" y="-57.8" font-family="Helvetica,Arial,sans-serif" font-size="14.00">reviewer</text>
</g>
<!-- review&#45;&gt;delete -->
<g id="edge22" class="edge">
<title>review&#45;&gt;delete</title>
<path fill="none" stroke="black" d="M388.8,-36.36C393.86,-45.88 397.99,-57.96 395,-69 380.27,-123.49 375.87,-144.45 331,-178.7 303.95,-199.34 265.69,-207.83 237.5,-211.31"/>
<polygon fill="black" stroke="black" points="236.8,-207.86 227.23,-212.41 237.54,-214.82 236.8,-207.86"/>
<text text-anchor="middle" x="415" y="-112.65" font-family="Helvetica,Arial,sans-serif" font-size="14.00">reviewer</text>
</g>
<!-- review&#45;&gt;new -->
<g id="edge23" class="edge">
<title>review&#45;&gt;new</title>
<path fill="none" stroke="black" d="M405.08,-22.83C474.58,-33.11 649,-64 649,-115.35 649,-389.7 649,-389.7 649,-389.7 649,-453.6 425.86,-469.65 335.92,-473.52"/>
<polygon fill="black" stroke="black" points="335.73,-470.02 325.88,-473.92 336.02,-477.02 335.73,-470.02"/>
<text text-anchor="middle" x="675" y="-254.5" font-family="Helvetica,Arial,sans-serif" font-size="14.00">importer</text>
</g>
<!-- archived&#45;&gt;read -->
<g id="edge5" class="edge">
<title>archived&#45;&gt;read</title>
<path fill="none" stroke="black" d="M218.57,-134.45C208.39,-142.73 196.53,-153.16 187,-163.7 153.4,-200.86 126.29,-217.23 139,-265.7 150.26,-308.62 157.61,-320.36 188,-352.7 193.26,-358.29 199.59,-363.41 206.03,-367.9"/>
<polygon fill="black" stroke="black" points="204.52,-371.08 214.8,-373.61 208.34,-365.22 204.52,-371.08"/>
<text text-anchor="middle" x="158" y="-254.5" font-family="Helvetica,Arial,sans-serif" font-size="14.00">admin</text>
</g>
<!-- archived&#45;&gt;assessing -->
<g id="edge2" class="edge">
<title>archived&#45;&gt;assessing</title>
<path fill="none" stroke="black" d="M275.24,-129.92C293.25,-137.71 314.87,-149.05 331,-163.7 365.04,-194.61 372.28,-207.13 387,-250.7 389.43,-257.87 390.66,-265.95 391.24,-273.48"/>
<polygon fill="black" stroke="black" points="387.75,-273.77 391.68,-283.62 394.75,-273.48 387.75,-273.77"/>
<text text-anchor="middle" x="419.5" y="-211" font-family="Helvetica,Arial,sans-serif" font-size="14.00">admin, editor</text>
</g>
<!-- archived&#45;&gt;review -->
<g id="edge6" class="edge">
<title>archived&#45;&gt;review</title>
<path fill="none" stroke="black" d="M208.55,-98.26C189.77,-86.16 172.16,-69.39 185,-54 204.15,-31.05 288.11,-23.11 338.45,-20.39"/>
<polygon fill="black" stroke="black" points="338.83,-23.87 348.64,-19.88 338.48,-16.88 338.83,-23.87"/>
<text text-anchor="middle" x="253.5" y="-57.8" font-family="Helvetica,Arial,sans-serif" font-size="14.00">admin, editor, reviewer</text>
</g>
<!-- archived&#45;&gt;delete -->
<g id="edge3" class="edge">
<title>archived&#45;&gt;delete</title>
<path fill="none" stroke="black" d="M216.32,-134.36C207.2,-142.13 197.89,-152.18 193,-163.7 189.99,-170.8 189.87,-178.92 191.02,-186.53"/>
<polygon fill="black" stroke="black" points="187.63,-187.43 193.21,-196.44 194.47,-185.92 187.63,-187.43"/>
<text text-anchor="middle" x="239" y="-167.5" font-family="Helvetica,Arial,sans-serif" font-size="14.00">editor, reviewer</text>
</g>
<!-- archived&#45;&gt;new -->
<g id="edge4" class="edge">
<title>archived&#45;&gt;new</title>
<path fill="none" stroke="black" d="M220.4,-134.37C214.69,-138.5 208.32,-142.61 202,-145.7 154.21,-169.02 138.12,-164.06 87,-178.7 59,-186.71 45.59,-177.15 24,-196.7 2.55,-216.11 0,-228.27 0,-257.2 0,-389.7 0,-389.7 0,-389.7 0,-443.6 182.09,-465.14 262.07,-472"/>
<polygon fill="black" stroke="black" points="261.95,-475.5 272.2,-472.83 262.52,-468.52 261.95,-475.5"/>
<text text-anchor="middle" x="26" y="-298" font-family="Helvetica,Arial,sans-serif" font-size="14.00">importer</text>
</g>
<!-- delete&#45;&gt;read -->
<g id="edge14" class="edge">
<title>delete&#45;&gt;read</title>
<path fill="none" stroke="black" d="M191.7,-232.78C182.67,-253.83 170.92,-290.39 182,-319.7 188.36,-336.53 201,-351.88 213.05,-363.72"/>
<polygon fill="black" stroke="black" points="210.72,-366.34 220.41,-370.63 215.51,-361.23 210.72,-366.34"/>
<text text-anchor="middle" x="201" y="-298" font-family="Helvetica,Arial,sans-serif" font-size="14.00">admin</text>
</g>
<!-- delete&#45;&gt;assessing -->
<g id="edge13" class="edge">
<title>delete&#45;&gt;assessing</title>
<path fill="none" stroke="black" d="M205.89,-232.76C210.64,-243.92 218.45,-257.83 230,-265.7 270.22,-293.08 290.71,-272.23 338,-283.7 339.47,-284.05 340.95,-284.43 342.45,-284.82"/>
<polygon fill="black" stroke="black" points="341.82,-288.28 352.4,-287.6 343.71,-281.54 341.82,-288.28"/>
<text text-anchor="middle" x="249" y="-254.5" font-family="Helvetica,Arial,sans-serif" font-size="14.00">admin</text>
</g>
<!-- delete&#45;&gt;review -->
<g id="edge15" class="edge">
<title>delete&#45;&gt;review</title>
<path fill="none" stroke="black" d="M186.51,-196.69C177.02,-183.6 165.15,-164.59 160,-145.7 149.11,-105.7 143.61,-78.56 177,-54 202.12,-35.52 288.04,-25.87 338.72,-21.67"/>
<polygon fill="black" stroke="black" points="339.28,-25.13 348.97,-20.85 338.72,-18.16 339.28,-25.13"/>
<text text-anchor="middle" x="179" y="-112.65" font-family="Helvetica,Arial,sans-serif" font-size="14.00">admin</text>
</g>
<!-- delete&#45;&gt;archived -->
<g id="edge12" class="edge">
<title>delete&#45;&gt;archived</title>
<path fill="none" stroke="black" d="M227.23,-210.42C246.92,-206.48 272.21,-197.79 285,-178.7 293.32,-166.28 285.5,-152.75 274.26,-141.57"/>
<polygon fill="black" stroke="black" points="276.29,-138.69 266.52,-134.59 271.61,-143.89 276.29,-138.69"/>
<text text-anchor="middle" x="308" y="-167.5" font-family="Helvetica,Arial,sans-serif" font-size="14.00">admin</text>
</g>
<!-- end -->
<g id="node8" class="node">
<title>end</title>
<ellipse fill="none" stroke="black" cx="72" cy="-116.35" rx="25.22" ry="25.22"/>
<ellipse fill="none" stroke="black" cx="72" cy="-116.35" rx="29.2" ry="29.2"/>
<text text-anchor="middle" x="72" y="-112.65" font-family="Helvetica,Arial,sans-serif" font-size="14.00">end</text>
</g>
<!-- delete&#45;&gt;end -->
<g id="edge11" class="edge">
<title>delete&#45;&gt;end</title>
<path fill="none" stroke="black" d="M172.92,-210.37C150.62,-206.34 119.46,-197.57 99,-178.7 91.9,-172.15 86.57,-163.4 82.6,-154.57"/>
<polygon fill="black" stroke="black" points="85.76,-153.04 78.81,-145.04 79.26,-155.63 85.76,-153.04"/>
<text text-anchor="middle" x="118" y="-167.5" font-family="Helvetica,Arial,sans-serif" font-size="14.00">admin</text>
</g>
<!-- new&#45;&gt;read -->
<g id="edge16" class="edge">
<title>new&#45;&gt;read</title>
<path fill="none" stroke="black" d="M275.57,-466.37C263.59,-460.8 250.07,-452.16 243,-439.7 239.17,-432.95 237.89,-424.82 237.85,-417.09"/>
<polygon fill="black" stroke="black" points="241.35,-417.16 238.44,-406.98 234.37,-416.76 241.35,-417.16"/>
<text text-anchor="middle" x="260" y="-428.5" font-family="Helvetica,Arial,sans-serif" font-size="14.00">editor</text>
</g>
</g>
</svg>
