<?xml version="1.0" encoding="UTF-8" standalone="no"?>
<!DOCTYPE svg PUBLIC "-//W3C//DTD SVG 1.1//EN"
 "http://www.w3.org/Graphics/SVG/1.1/DTD/svg11.dtd">
<!-- Generated by graphviz version 2.43.0 (0)
 -->
<!-- Title: workflow_transitions Pages: 1 -->
<svg width="707pt" height="617pt"
 viewBox="0.00 0.00 707.00 616.59" xmlns="http://www.w3.org/2000/svg" xmlns:xlink="http://www.w3.org/1999/xlink">
<g id="graph0" class="graph" transform="scale(1 1) rotate(0) translate(4 612.59)">
<title>workflow_transitions</title>
<polygon fill="white" stroke="transparent" points="-4,4 -4,-612.59 703,-612.59 703,4 -4,4"/>
<!-- start -->
<g id="node1" class="node">
<title>start</title>
<ellipse fill="none" stroke="black" cx="298" cy="-576.64" rx="27.9" ry="27.9"/>
<ellipse fill="none" stroke="black" cx="298" cy="-576.64" rx="31.9" ry="31.9"/>
<text text-anchor="middle" x="298" y="-572.94" font-family="Helvetica,Arial,sans-serif" font-size="14.00">start</text>
</g>
<!-- new -->
<g id="node7" class="node">
<title>new</title>
<ellipse fill="none" stroke="black" cx="298" cy="-475.7" rx="27" ry="18"/>
<text text-anchor="middle" x="298" y="-472" font-family="Helvetica,Arial,sans-serif" font-size="14.00">new</text>
</g>
<!-- start&#45;&gt;new -->
<g id="edge1" class="edge">
<title>start&#45;&gt;new</title>
<path fill="none" stroke="black" d="M298,-544.61C298,-531.63 298,-516.68 298,-504.12"/>
<polygon fill="black" stroke="black" points="301.5,-503.8 298,-493.8 294.5,-503.8 301.5,-503.8"/>
<text text-anchor="middle" x="323.5" y="-515.5" font-family="Helvetica,Arial,sans-serif" font-size="14.00">importer</text>
</g>
<!-- read -->
<g id="node2" class="node">
<title>read</title>
<polygon fill="none" stroke="black" points="268,-406.7 214,-406.7 214,-370.7 268,-370.7 268,-406.7"/>
<text text-anchor="middle" x="241" y="-385" font-family="Helvetica,Arial,sans-serif" font-size="14.00">read</text>
</g>
<!-- assessing -->
<g id="node3" class="node">
<title>assessing</title>
<polygon fill="none" stroke="black" points="428.5,-319.7 351.5,-319.7 351.5,-283.7 428.5,-283.7 428.5,-319.7"/>
<text text-anchor="middle" x="390" y="-298" font-family="Helvetica,Arial,sans-serif" font-size="14.00">assessing</text>
</g>
<!-- read&#45;&gt;assessing -->
<g id="edge17" class="edge">
<title>read&#45;&gt;assessing</title>
<path fill="none" stroke="black" d="M268.08,-375.5C281.75,-369.1 298.48,-360.9 313,-352.7 317.47,-350.17 336.96,-337.51 355.22,-325.56"/>
<polygon fill="black" stroke="black" points="357.56,-328.21 364,-319.8 353.72,-322.36 357.56,-328.21"/>
<text text-anchor="middle" x="352" y="-341.5" font-family="Helvetica,Arial,sans-serif" font-size="14.00">editor</text>
</g>
<!-- delete -->
<g id="node6" class="node">
<title>delete</title>
<polygon fill="none" stroke="black" points="226,-232.7 172,-232.7 172,-196.7 226,-196.7 226,-232.7"/>
<text text-anchor="middle" x="199" y="-211" font-family="Helvetica,Arial,sans-serif" font-size="14.00">delete</text>
</g>
<!-- read&#45;&gt;delete -->
<g id="edge18" class="edge">
<title>read&#45;&gt;delete</title>
<path fill="none" stroke="black" d="M238,-370.62C234.22,-349.9 227.22,-313.97 219,-283.7 216.79,-275.56 215.47,-273.76 213,-265.7 210.71,-258.23 208.37,-250.09 206.27,-242.59"/>
<polygon fill="black" stroke="black" points="209.63,-241.59 203.59,-232.88 202.88,-243.45 209.63,-241.59"/>
<text text-anchor="middle" x="274" y="-298" font-family="Helvetica,Arial,sans-serif" font-size="14.00">editor, reviewer</text>
</g>
<!-- read&#45;&gt;new -->
<g id="edge19" class="edge">
<title>read&#45;&gt;new</title>
<path fill="none" stroke="black" d="M260.56,-406.71C266.01,-412.09 271.63,-418.31 276,-424.7 280.89,-431.85 285.1,-440.27 288.48,-448.14"/>
<polygon fill="black" stroke="black" points="285.34,-449.7 292.32,-457.68 291.83,-447.09 285.34,-449.7"/>
<text text-anchor="middle" x="302" y="-428.5" font-family="Helvetica,Arial,sans-serif" font-size="14.00">editor</text>
</g>
<!-- assessing&#45;&gt;read -->
<g id="edge9" class="edge">
<title>assessing&#45;&gt;read</title>
<path fill="none" stroke="black" d="M351.23,-315.18C346.44,-316.71 341.61,-318.24 337,-319.7 311.26,-327.82 301.11,-322.21 279,-337.7 269.89,-344.07 262.01,-353.31 255.82,-362.11"/>
<polygon fill="black" stroke="black" points="252.78,-360.36 250.21,-370.64 258.63,-364.21 252.78,-360.36"/>
<text text-anchor="middle" x="296" y="-341.5" font-family="Helvetica,Arial,sans-serif" font-size="14.00">editor</text>
</g>
<!-- review -->
<g id="node4" class="node">
<title>review</title>
<polygon fill="none" stroke="black" points="405,-36 349,-36 349,0 405,0 405,-36"/>
<text text-anchor="middle" x="377" y="-14.3" font-family="Helvetica,Arial,sans-serif" font-size="14.00">review</text>
</g>
<!-- assessing&#45;&gt;review -->
<g id="edge10" class="edge">
<title>assessing&#45;&gt;review</title>
<path fill="none" stroke="black" d="M417.26,-283.5C433.58,-271.49 452.88,-253.85 462,-232.7 468.33,-218 463.23,-212.65 462,-196.7 458.21,-147.51 467.32,-131 445,-87 436.35,-69.95 421.83,-54.55 408.42,-42.73"/>
<polygon fill="black" stroke="black" points="410.6,-39.99 400.71,-36.2 406.08,-45.33 410.6,-39.99"/>
<text text-anchor="middle" x="478" y="-167.5" font-family="Helvetica,Arial,sans-serif" font-size="14.00">editor</text>
</g>
<!-- assessing&#45;&gt;delete -->
<g id="edge7" class="edge">
<title>assessing&#45;&gt;delete</title>
<path fill="none" stroke="black" d="M351.37,-287.62C329.48,-280.01 304.43,-270.91 294,-265.7 283.08,-260.24 281.62,-256.71 271,-250.7 259.66,-244.28 246.97,-237.86 235.44,-232.32"/>
<polygon fill="black" stroke="black" points="236.62,-229 226.08,-227.88 233.62,-235.32 236.62,-229"/>
<text text-anchor="middle" x="340" y="-254.5" font-family="Helvetica,Arial,sans-serif" font-size="14.00">editor, reviewer</text>
</g>
<!-- assessing&#45;&gt;new -->
<g id="edge8" class="edge">
<title>assessing&#45;&gt;new</title>
<path fill="none" stroke="black" d="M384.08,-320.07C380.6,-329.8 375.92,-342.08 371,-352.7 352.44,-392.77 346.54,-402.33 323,-439.7 320.67,-443.39 318.1,-447.23 315.52,-450.94"/>
<polygon fill="black" stroke="black" points="312.54,-449.1 309.6,-459.28 318.24,-453.16 312.54,-449.1"/>
<text text-anchor="middle" x="387.5" y="-385" font-family="Helvetica,Arial,sans-serif" font-size="14.00">importer</text>
</g>
<!-- review&#45;&gt;read -->
<g id="edge24" class="edge">
<title>review&#45;&gt;read</title>
<path fill="none" stroke="black" d="M348.87,-20.02C273.91,-23.42 72.43,-37.1 34,-87 -34.58,-176.04 62.94,-231.82 133,-319.7 146.53,-336.67 151.05,-340.49 169,-352.7 180.06,-360.22 192.99,-367.03 204.81,-372.61"/>
<polygon fill="black" stroke="black" points="203.45,-375.83 214,-376.8 206.35,-369.47 203.45,-375.83"/>
<text text-anchor="middle" x="80" y="-211" font-family="Helvetica,Arial,sans-serif" font-size="14.00">reviewer</text>
</g>
<!-- review&#45;&gt;assessing -->
<g id="edge21" class="edge">
<title>review&#45;&gt;assessing</title>
<path fill="none" stroke="black" d="M405.19,-31.62C416.65,-37.5 429.62,-45.16 440,-54 482.15,-89.89 487.83,-109.48 499,-163.7 508.86,-211.55 493.35,-231.97 458,-265.7 452.12,-271.3 445.17,-276.23 438,-280.48"/>
<polygon fill="black" stroke="black" points="435.93,-277.62 428.85,-285.5 439.3,-283.75 435.93,-277.62"/>
<text text-anchor="middle" x="547" y="-167.5" font-family="Helvetica,Arial,sans-serif" font-size="14.00">reviewer, editor</text>
</g>
<!-- archived -->
<g id="node5" class="node">
<title>archived</title>
<polygon fill="none" stroke="black" points="275,-134.35 207,-134.35 207,-98.35 275,-98.35 275,-134.35"/>
<text text-anchor="middle" x="241" y="-112.65" font-family="Helvetica,Arial,sans-serif" font-size="14.00">archived</text>
</g>
<!-- review&#45;&gt;archived -->
<g id="edge20" class="edge">
<title>review&#45;&gt;archived</title>
<path fill="none" stroke="black" d="M360,-36.24C349.54,-46.39 335.57,-59.13 322,-69 310.09,-77.66 296.42,-86.02 283.74,-93.2"/>
<polygon fill="black" stroke="black" points="281.77,-90.29 274.73,-98.2 285.17,-96.41 281.77,-90.29"/>
<text text-anchor="middle" x="365" y="-57.8" font-family="Helvetica,Arial,sans-serif" font-size="14.00">reviewer</text>
</g>
<!-- review&#45;&gt;delete -->
<g id="edge22" class="edge">
<title>review&#45;&gt;delete</title>
<path fill="none" stroke="black" d="M388.8,-36.36C393.86,-45.88 397.99,-57.96 395,-69 380.27,-123.49 375.9,-144.49 331,-178.7 303.54,-199.61 264.61,-208.06 236.14,-211.45"/>
<polygon fill="black" stroke="black" points="235.75,-207.97 226.17,-212.49 236.48,-214.94 235.75,-207.97"/>
<text text-anchor="middle" x="415" y="-112.65" font-family="Helvetica,Arial,sans-serif" font-size="14.00">reviewer</text>
</g>
<!-- review&#45;&gt;new -->
<g id="edge23" class="edge">
<title>review&#45;&gt;new</title>
<path fill="none" stroke="black" d="M405.23,-22.89C474.64,-33.25 648,-64.23 648,-115.35 648,-389.7 648,-389.7 648,-389.7 648,-453.6 424.86,-469.65 334.92,-473.52"/>
<polygon fill="black" stroke="black" points="334.73,-470.02 324.88,-473.92 335.02,-477.02 334.73,-470.02"/>
<text text-anchor="middle" x="673.5" y="-254.5" font-family="Helvetica,Arial,sans-serif" font-size="14.00">importer</text>
</g>
<!-- archived&#45;&gt;read -->
<g id="edge5" class="edge">
<title>archived&#45;&gt;read</title>
<path fill="none" stroke="black" d="M218.67,-134.54C208.51,-142.84 196.63,-153.25 187,-163.7 156.91,-196.31 147.55,-207.36 138,-250.7 127.18,-299.81 152.56,-316.05 187,-352.7 192.26,-358.29 198.59,-363.41 205.03,-367.9"/>
<polygon fill="black" stroke="black" points="203.52,-371.08 213.8,-373.61 207.34,-365.22 203.52,-371.08"/>
<text text-anchor="middle" x="157" y="-254.5" font-family="Helvetica,Arial,sans-serif" font-size="14.00">admin</text>
</g>
<!-- archived&#45;&gt;assessing -->
<g id="edge2" class="edge">
<title>archived&#45;&gt;assessing</title>
<path fill="none" stroke="black" d="M275.29,-129.87C293.31,-137.65 314.93,-148.98 331,-163.7 364.74,-194.59 371.53,-207.3 386,-250.7 388.4,-257.88 389.63,-265.96 390.2,-273.49"/>
<polygon fill="black" stroke="black" points="386.71,-273.79 390.64,-283.63 393.71,-273.48 386.71,-273.79"/>
<text text-anchor="middle" x="418.5" y="-211" font-family="Helvetica,Arial,sans-serif" font-size="14.00">admin, editor</text>
</g>
<!-- archived&#45;&gt;review -->
<g id="edge6" class="edge">
<title>archived&#45;&gt;review</title>
<path fill="none" stroke="black" d="M208.55,-98.26C189.77,-86.16 172.16,-69.39 185,-54 204.15,-31.05 288.11,-23.11 338.45,-20.39"/>
<polygon fill="black" stroke="black" points="338.83,-23.87 348.64,-19.88 338.48,-16.88 338.83,-23.87"/>
<text text-anchor="middle" x="253.5" y="-57.8" font-family="Helvetica,Arial,sans-serif" font-size="14.00">admin, editor, reviewer</text>
</g>
<!-- archived&#45;&gt;delete -->
<g id="edge3" class="edge">
<title>archived&#45;&gt;delete</title>
<path fill="none" stroke="black" d="M216.32,-134.36C207.2,-142.13 197.89,-152.18 193,-163.7 189.99,-170.78 189.76,-178.9 190.76,-186.51"/>
<polygon fill="black" stroke="black" points="187.34,-187.29 192.72,-196.42 194.21,-185.93 187.34,-187.29"/>
<text text-anchor="middle" x="239" y="-167.5" font-family="Helvetica,Arial,sans-serif" font-size="14.00">editor, reviewer</text>
</g>
<!-- archived&#45;&gt;new -->
<g id="edge4" class="edge">
<title>archived&#45;&gt;new</title>
<path fill="none" stroke="black" d="M220.4,-134.37C214.69,-138.5 208.32,-142.61 202,-145.7 154.21,-169.02 138.12,-164.06 87,-178.7 59,-186.71 45.59,-177.15 24,-196.7 2.55,-216.11 0,-228.27 0,-257.2 0,-389.7 0,-389.7 0,-389.7 0,-443.44 181.49,-465.07 261.2,-471.97"/>
<polygon fill="black" stroke="black" points="261.04,-475.47 271.29,-472.82 261.62,-468.5 261.04,-475.47"/>
<text text-anchor="middle" x="25.5" y="-298" font-family="Helvetica,Arial,sans-serif" font-size="14.00">importer</text>
</g>
<!-- delete&#45;&gt;read -->
<g id="edge14" class="edge">
<title>delete&#45;&gt;read</title>
<path fill="none" stroke="black" d="M190.7,-232.78C181.67,-253.83 169.92,-290.39 181,-319.7 187.36,-336.53 200,-351.88 212.05,-363.72"/>
<polygon fill="black" stroke="black" points="209.72,-366.34 219.41,-370.63 214.51,-361.23 209.72,-366.34"/>
<text text-anchor="middle" x="200" y="-298" font-family="Helvetica,Arial,sans-serif" font-size="14.00">admin</text>
</g>
<!-- delete&#45;&gt;assessing -->
<g id="edge13" class="edge">
<title>delete&#45;&gt;assessing</title>
<path fill="none" stroke="black" d="M204.89,-232.76C209.64,-243.92 217.45,-257.83 229,-265.7 269.22,-293.08 289.71,-272.23 337,-283.7 338.47,-284.05 339.95,-284.43 341.45,-284.82"/>
<polygon fill="black" stroke="black" points="340.82,-288.28 351.4,-287.6 342.71,-281.54 340.82,-288.28"/>
<text text-anchor="middle" x="248" y="-254.5" font-family="Helvetica,Arial,sans-serif" font-size="14.00">admin</text>
</g>
<!-- delete&#45;&gt;review -->
<g id="edge15" class="edge">
<title>delete&#45;&gt;review</title>
<path fill="none" stroke="black" d="M185.84,-196.64C176.59,-183.52 165.01,-164.5 160,-145.7 149.33,-105.64 143.61,-78.56 177,-54 202.12,-35.52 288.04,-25.87 338.72,-21.67"/>
<polygon fill="black" stroke="black" points="339.28,-25.13 348.97,-20.85 338.72,-18.16 339.28,-25.13"/>
<text text-anchor="middle" x="179" y="-112.65" font-family="Helvetica,Arial,sans-serif" font-size="14.00">admin</text>
</g>
<!-- delete&#45;&gt;archived -->
<g id="edge12" class="edge">
<title>delete&#45;&gt;archived</title>
<path fill="none" stroke="black" d="M226.13,-210.6C246.1,-206.74 271.95,-198.09 285,-178.7 293.34,-166.3 285.52,-152.77 274.29,-141.58"/>
<polygon fill="black" stroke="black" points="276.31,-138.7 266.54,-134.6 271.63,-143.9 276.31,-138.7"/>
<text text-anchor="middle" x="308" y="-167.5" font-family="Helvetica,Arial,sans-serif" font-size="14.00">admin</text>
</g>
<!-- end -->
<g id="node8" class="node">
<title>end</title>
<ellipse fill="none" stroke="black" cx="72" cy="-116.35" rx="25.22" ry="25.22"/>
<ellipse fill="none" stroke="black" cx="72" cy="-116.35" rx="29.2" ry="29.2"/>
<text text-anchor="middle" x="72" y="-112.65" font-family="Helvetica,Arial,sans-serif" font-size="14.00">end</text>
</g>
<!-- delete&#45;&gt;end -->
<g id="edge11" class="edge">
<title>delete&#45;&gt;end</title>
<path fill="none" stroke="black" d="M171.74,-210.22C149.69,-206.11 119.12,-197.31 99,-178.7 91.91,-172.14 86.58,-163.39 82.61,-154.55"/>
<polygon fill="black" stroke="black" points="85.78,-153.03 78.83,-145.03 79.27,-155.62 85.78,-153.03"/>
<text text-anchor="middle" x="118" y="-167.5" font-family="Helvetica,Arial,sans-serif" font-size="14.00">admin</text>
</g>
<!-- new&#45;&gt;read -->
<g id="edge16" class="edge">
<title>new&#45;&gt;read</title>
<path fill="none" stroke="black" d="M274.57,-466.37C262.59,-460.8 249.07,-452.16 242,-439.7 238.17,-432.95 236.89,-424.82 236.85,-417.09"/>
<polygon fill="black" stroke="black" points="240.35,-417.16 237.44,-406.98 233.37,-416.76 240.35,-417.16"/>
<text text-anchor="middle" x="259" y="-428.5" font-family="Helvetica,Arial,sans-serif" font-size="14.00">editor</text>
</g>
</g>
</svg>
