<?xml version="1.0" encoding="UTF-8" standalone="no"?>
<!DOCTYPE svg PUBLIC "-//W3C//DTD SVG 1.1//EN"
 "http://www.w3.org/Graphics/SVG/1.1/DTD/svg11.dtd">
<!-- Generated by graphviz version 11.0.0 (0)
 -->
<!-- Title: workflow_transitions Pages: 1 -->
<svg width="827pt" height="616pt"
 viewBox="0.00 0.00 826.50 615.94" xmlns="http://www.w3.org/2000/svg" xmlns:xlink="http://www.w3.org/1999/xlink">
<g id="graph0" class="graph" transform="scale(1 1) rotate(0) translate(4 611.94)">
<title>workflow_transitions</title>
<polygon fill="white" stroke="none" points="-4,4 -4,-611.94 822.5,-611.94 822.5,4 -4,4"/>
<!-- start -->
<g id="node1" class="node">
<title>start</title>
<ellipse fill="none" stroke="black" cx="292" cy="-575.99" rx="27.95" ry="27.95"/>
<ellipse fill="none" stroke="black" cx="292" cy="-575.99" rx="31.95" ry="31.95"/>
<text text-anchor="middle" x="292" y="-570.19" font-family="Helvetica,Arial,sans-serif" font-size="14.00">start</text>
</g>
<!-- new -->
<g id="node3" class="node">
<title>new</title>
<polygon fill="none" stroke="black" points="319,-493.05 265,-493.05 265,-457.05 319,-457.05 319,-493.05"/>
<text text-anchor="middle" x="292" y="-469.25" font-family="Helvetica,Arial,sans-serif" font-size="14.00">new</text>
</g>
<!-- start&#45;&gt;new -->
<g id="edge1" class="edge">
<title>start&#45;&gt;new</title>
<path fill="none" stroke="black" d="M292,-543.69C292,-531.2 292,-516.92 292,-504.72"/>
<polygon fill="black" stroke="black" points="295.5,-504.85 292,-494.85 288.5,-504.85 295.5,-504.85"/>
<text text-anchor="middle" x="317.5" y="-512.75" font-family="Helvetica,Arial,sans-serif" font-size="14.00">importer</text>
</g>
<!-- end -->
<g id="node2" class="node">
<title>end</title>
<ellipse fill="none" stroke="black" cx="290" cy="-203.02" rx="25.02" ry="25.02"/>
<ellipse fill="none" stroke="black" cx="290" cy="-203.02" rx="29.02" ry="29.02"/>
<text text-anchor="middle" x="290" y="-197.22" font-family="Helvetica,Arial,sans-serif" font-size="14.00">end</text>
</g>
<!-- read -->
<g id="node7" class="node">
<title>read</title>
<polygon fill="none" stroke="black" points="262,-406.05 208,-406.05 208,-370.05 262,-370.05 262,-406.05"/>
<text text-anchor="middle" x="235" y="-382.25" font-family="Helvetica,Arial,sans-serif" font-size="14.00">read</text>
</g>
<!-- new&#45;&gt;read -->
<g id="edge16" class="edge">
<title>new&#45;&gt;read</title>
<path fill="none" stroke="black" d="M286.14,-456.56C282.35,-446.56 276.85,-434.06 270,-424.05 267.8,-420.83 265.28,-417.65 262.62,-414.6"/>
<polygon fill="black" stroke="black" points="265.36,-412.4 255.96,-407.52 260.26,-417.2 265.36,-412.4"/>
<text text-anchor="middle" x="294.88" y="-425.75" font-family="Helvetica,Arial,sans-serif" font-size="14.00">editor</text>
</g>
<!-- archived -->
<g id="node4" class="node">
<title>archived</title>
<polygon fill="none" stroke="black" points="240.5,-221.02 173.5,-221.02 173.5,-185.02 240.5,-185.02 240.5,-221.02"/>
<text text-anchor="middle" x="207" y="-197.22" font-family="Helvetica,Arial,sans-serif" font-size="14.00">archived</text>
</g>
<!-- archived&#45;&gt;new -->
<g id="edge4" class="edge">
<title>archived&#45;&gt;new</title>
<path fill="none" stroke="black" d="M190.24,-221.11C183.06,-229.28 175.16,-239.56 170,-250.05 137.28,-316.59 138.56,-323.95 149,-352.05 166.78,-399.9 183.9,-407.45 224,-439.05 233.23,-446.32 244.2,-452.75 254.62,-458.04"/>
<polygon fill="black" stroke="black" points="252.86,-461.08 263.39,-462.29 255.92,-454.78 252.86,-461.08"/>
<text text-anchor="middle" x="174.5" y="-338.75" font-family="Helvetica,Arial,sans-serif" font-size="14.00">importer</text>
</g>
<!-- assessing -->
<g id="node5" class="node">
<title>assessing</title>
<polygon fill="none" stroke="black" points="279,-36 203,-36 203,0 279,0 279,-36"/>
<text text-anchor="middle" x="241" y="-12.2" font-family="Helvetica,Arial,sans-serif" font-size="14.00">assessing</text>
</g>
<!-- archived&#45;&gt;assessing -->
<g id="edge2" class="edge">
<title>archived&#45;&gt;assessing</title>
<path fill="none" stroke="black" d="M208.12,-184.59C209.05,-172.34 210.62,-155.6 213,-141 218.3,-108.56 227.11,-71.87 233.43,-47.27"/>
<polygon fill="black" stroke="black" points="236.79,-48.26 235.93,-37.7 230.02,-46.49 236.79,-48.26"/>
<text text-anchor="middle" x="241.75" y="-99.2" font-family="Helvetica,Arial,sans-serif" font-size="14.00">admin</text>
</g>
<!-- delete -->
<g id="node6" class="node">
<title>delete</title>
<polygon fill="none" stroke="black" points="323,-319.05 269,-319.05 269,-283.05 323,-283.05 323,-319.05"/>
<text text-anchor="middle" x="296" y="-295.25" font-family="Helvetica,Arial,sans-serif" font-size="14.00">delete</text>
</g>
<!-- archived&#45;&gt;delete -->
<g id="edge3" class="edge">
<title>archived&#45;&gt;delete</title>
<path fill="none" stroke="black" d="M212.31,-221.42C217.01,-234.59 224.94,-252.5 236.5,-265.05 242.85,-271.94 250.88,-277.88 258.96,-282.82"/>
<polygon fill="black" stroke="black" points="256.99,-285.73 267.42,-287.59 260.43,-279.63 256.99,-285.73"/>
<text text-anchor="middle" x="281.75" y="-251.75" font-family="Helvetica,Arial,sans-serif" font-size="14.00">editor, reviewer</text>
</g>
<!-- archived&#45;&gt;read -->
<g id="edge5" class="edge">
<title>archived&#45;&gt;read</title>
<path fill="none" stroke="black" d="M189.86,-221.49C180.44,-233.21 171.34,-249.32 175,-265.05 183.11,-299.89 202.65,-336.24 217.24,-360.1"/>
<polygon fill="black" stroke="black" points="214.26,-361.93 222.54,-368.54 220.19,-358.21 214.26,-361.93"/>
<text text-anchor="middle" x="211.75" y="-295.25" font-family="Helvetica,Arial,sans-serif" font-size="14.00">admin</text>
</g>
<!-- review -->
<g id="node8" class="node">
<title>review</title>
<polygon fill="none" stroke="black" points="380.5,-123 325.5,-123 325.5,-87 380.5,-87 380.5,-123"/>
<text text-anchor="middle" x="353" y="-99.2" font-family="Helvetica,Arial,sans-serif" font-size="14.00">review</text>
</g>
<!-- archived&#45;&gt;review -->
<g id="edge6" class="edge">
<title>archived&#45;&gt;review</title>
<path fill="none" stroke="black" d="M234.52,-184.7C240.28,-181.13 246.32,-177.42 252,-174 265.65,-165.79 269.61,-164.64 283,-156 295.57,-147.88 309.03,-138.46 320.75,-130"/>
<polygon fill="black" stroke="black" points="322.48,-133.07 328.51,-124.35 318.36,-127.41 322.48,-133.07"/>
<text text-anchor="middle" x="322.75" y="-142.7" font-family="Helvetica,Arial,sans-serif" font-size="14.00">admin</text>
</g>
<!-- assessing&#45;&gt;new -->
<g id="edge8" class="edge">
<title>assessing&#45;&gt;new</title>
<path fill="none" stroke="black" d="M279.14,-21.65C393.71,-30.1 727,-58.6 727,-104 727,-389.05 727,-389.05 727,-389.05 727,-469.44 437.21,-475.22 330.68,-474.63"/>
<polygon fill="black" stroke="black" points="330.75,-471.13 320.72,-474.55 330.7,-478.13 330.75,-471.13"/>
<text text-anchor="middle" x="772.75" y="-251.75" font-family="Helvetica,Arial,sans-serif" font-size="14.00">editor, importer</text>
</g>
<!-- assessing&#45;&gt;delete -->
<g id="edge7" class="edge">
<title>assessing&#45;&gt;delete</title>
<path fill="none" stroke="black" d="M279.08,-23.15C341.34,-32.19 463.53,-59.85 519,-141 546.54,-181.29 529.11,-201.32 532,-250.05 532.4,-256.7 536.35,-260 532,-265.05 506.95,-294.08 394.68,-299.42 334.46,-300.16"/>
<polygon fill="black" stroke="black" points="334.64,-296.66 324.67,-300.24 334.69,-303.66 334.64,-296.66"/>
<text text-anchor="middle" x="572.75" y="-142.7" font-family="Helvetica,Arial,sans-serif" font-size="14.00">editor, reviewer</text>
</g>
<!-- assessing&#45;&gt;read -->
<g id="edge9" class="edge">
<title>assessing&#45;&gt;read</title>
<path fill="none" stroke="black" d="M219.58,-36.47C189.64,-62.58 137.18,-115.08 121.25,-174 98.67,-257.53 143.79,-286.26 200,-352.05 202.73,-355.24 205.69,-358.49 208.7,-361.66"/>
<polygon fill="black" stroke="black" points="206.08,-363.98 215.58,-368.68 211.08,-359.08 206.08,-363.98"/>
<text text-anchor="middle" x="138.88" y="-197.22" font-family="Helvetica,Arial,sans-serif" font-size="14.00">editor</text>
</g>
<!-- assessing&#45;&gt;review -->
<g id="edge10" class="edge">
<title>assessing&#45;&gt;review</title>
<path fill="none" stroke="black" d="M274.9,-36.42C284,-41.63 293.63,-47.66 302,-54 311.64,-61.3 321.33,-70.29 329.64,-78.63"/>
<polygon fill="black" stroke="black" points="326.91,-80.83 336.38,-85.57 331.93,-75.96 326.91,-80.83"/>
<text text-anchor="middle" x="334.88" y="-55.7" font-family="Helvetica,Arial,sans-serif" font-size="14.00">editor</text>
</g>
<!-- delete&#45;&gt;end -->
<g id="edge11" class="edge">
<title>delete&#45;&gt;end</title>
<path fill="none" stroke="black" d="M319.61,-282.84C329.02,-273.75 336.64,-262.01 332,-250.05 329.22,-242.86 324.73,-236.11 319.7,-230.11"/>
<polygon fill="black" stroke="black" points="322.48,-227.97 313.12,-223.01 317.35,-232.72 322.48,-227.97"/>
<text text-anchor="middle" x="351.75" y="-251.75" font-family="Helvetica,Arial,sans-serif" font-size="14.00">admin</text>
</g>
<!-- delete&#45;&gt;archived -->
<g id="edge12" class="edge">
<title>delete&#45;&gt;archived</title>
<path fill="none" stroke="black" d="M268.59,-300.09C242,-298.48 202.9,-291.4 183.5,-265.05 176,-254.86 179.48,-241.99 185.8,-230.7"/>
<polygon fill="black" stroke="black" points="188.57,-232.85 191.06,-222.55 182.69,-229.06 188.57,-232.85"/>
<text text-anchor="middle" x="201.75" y="-251.75" font-family="Helvetica,Arial,sans-serif" font-size="14.00">admin</text>
</g>
<!-- delete&#45;&gt;assessing -->
<g id="edge13" class="edge">
<title>delete&#45;&gt;assessing</title>
<path fill="none" stroke="black" d="M268.74,-292.5C233.6,-282.72 176.74,-266.72 175,-265.05 163.85,-254.34 166.48,-247.31 164,-232.05 157.51,-192.05 155.15,-179.25 168.5,-141 180.85,-105.63 204.1,-69.24 220.95,-45.51"/>
<polygon fill="black" stroke="black" points="223.59,-47.84 226.62,-37.69 217.92,-43.74 223.59,-47.84"/>
<text text-anchor="middle" x="186.75" y="-142.7" font-family="Helvetica,Arial,sans-serif" font-size="14.00">admin</text>
</g>
<!-- delete&#45;&gt;read -->
<g id="edge14" class="edge">
<title>delete&#45;&gt;read</title>
<path fill="none" stroke="black" d="M268.74,-311.12C256.69,-316.63 243.64,-324.98 236.5,-337.05 232.77,-343.35 231.33,-350.92 231.09,-358.24"/>
<polygon fill="black" stroke="black" points="227.59,-358.33 231.49,-368.18 234.58,-358.05 227.59,-358.33"/>
<text text-anchor="middle" x="254.75" y="-338.75" font-family="Helvetica,Arial,sans-serif" font-size="14.00">admin</text>
</g>
<!-- delete&#45;&gt;review -->
<g id="edge15" class="edge">
<title>delete&#45;&gt;review</title>
<path fill="none" stroke="black" d="M323.47,-296.25C356.58,-291.04 409.25,-280.53 421,-265.05 452.65,-223.31 409.61,-164.62 378.96,-131.45"/>
<polygon fill="black" stroke="black" points="381.58,-129.12 372.15,-124.29 376.51,-133.95 381.58,-129.12"/>
<text text-anchor="middle" x="450.75" y="-197.22" font-family="Helvetica,Arial,sans-serif" font-size="14.00">admin</text>
</g>
<!-- read&#45;&gt;new -->
<g id="edge19" class="edge">
<title>read&#45;&gt;new</title>
<path fill="none" stroke="black" d="M229.57,-406.33C227.43,-416.5 226.63,-429.24 232.25,-439.05 237.38,-447.99 245.77,-454.87 254.67,-460.06"/>
<polygon fill="black" stroke="black" points="252.94,-463.11 263.43,-464.54 256.12,-456.87 252.94,-463.11"/>
<text text-anchor="middle" x="248.88" y="-425.75" font-family="Helvetica,Arial,sans-serif" font-size="14.00">editor</text>
</g>
<!-- read&#45;&gt;assessing -->
<g id="edge17" class="edge">
<title>read&#45;&gt;assessing</title>
<path fill="none" stroke="black" d="M207.58,-383.07C145.59,-373.32 0,-345.76 0,-302.05 0,-302.05 0,-302.05 0,-104 0,-63.81 120.69,-37.94 191.26,-26.24"/>
<polygon fill="black" stroke="black" points="191.74,-29.71 201.05,-24.66 190.62,-22.8 191.74,-29.71"/>
<text text-anchor="middle" x="16.88" y="-197.22" font-family="Helvetica,Arial,sans-serif" font-size="14.00">editor</text>
</g>
<!-- read&#45;&gt;delete -->
<g id="edge18" class="edge">
<title>read&#45;&gt;delete</title>
<path fill="none" stroke="black" d="M257.68,-369.62C263.5,-364.41 269.41,-358.38 274,-352.05 278.86,-345.34 282.96,-337.39 286.26,-329.82"/>
<polygon fill="black" stroke="black" points="289.48,-331.19 289.95,-320.61 282.99,-328.59 289.48,-331.19"/>
<text text-anchor="middle" x="327.75" y="-338.75" font-family="Helvetica,Arial,sans-serif" font-size="14.00">editor, reviewer</text>
</g>
<!-- review&#45;&gt;new -->
<g id="edge23" class="edge">
<title>review&#45;&gt;new</title>
<path fill="none" stroke="black" d="M380.73,-106.16C441.81,-107.03 585.53,-112.19 623,-141 646.24,-158.86 648,-172.71 648,-202.02 648,-389.05 648,-389.05 648,-389.05 648,-453.72 422.87,-469.29 330.67,-472.95"/>
<polygon fill="black" stroke="black" points="330.72,-469.44 320.86,-473.31 330.98,-476.44 330.72,-469.44"/>
<text text-anchor="middle" x="673.5" y="-295.25" font-family="Helvetica,Arial,sans-serif" font-size="14.00">importer</text>
</g>
<!-- review&#45;&gt;archived -->
<g id="edge20" class="edge">
<title>review&#45;&gt;archived</title>
<path fill="none" stroke="black" d="M325.04,-106.6C297.03,-108.68 254.39,-116.1 228,-141 218.95,-149.53 213.8,-162.14 210.87,-173.68"/>
<polygon fill="black" stroke="black" points="207.5,-172.7 208.92,-183.2 214.36,-174.1 207.5,-172.7"/>
<text text-anchor="middle" x="253.5" y="-142.7" font-family="Helvetica,Arial,sans-serif" font-size="14.00">reviewer</text>
</g>
<!-- review&#45;&gt;assessing -->
<g id="edge21" class="edge">
<title>review&#45;&gt;assessing</title>
<path fill="none" stroke="black" d="M325.4,-102.81C300.87,-100.18 266.02,-92.25 247,-69 242.07,-62.98 239.85,-55.1 239.04,-47.39"/>
<polygon fill="black" stroke="black" points="242.54,-47.48 238.78,-37.58 235.55,-47.67 242.54,-47.48"/>
<text text-anchor="middle" x="272.5" y="-55.7" font-family="Helvetica,Arial,sans-serif" font-size="14.00">reviewer</text>
</g>
<!-- review&#45;&gt;delete -->
<g id="edge22" class="edge">
<title>review&#45;&gt;delete</title>
<path fill="none" stroke="black" d="M350.02,-123.12C346.45,-148.16 342.71,-195.71 358,-232.05 362.27,-242.19 370.93,-239.82 375,-250.05 377.46,-256.24 378.64,-259.46 375,-265.05 365.85,-279.11 349.61,-287.56 334.23,-292.63"/>
<polygon fill="black" stroke="black" points="333.41,-289.22 324.75,-295.33 335.33,-295.96 333.41,-289.22"/>
<text text-anchor="middle" x="383.5" y="-197.22" font-family="Helvetica,Arial,sans-serif" font-size="14.00">reviewer</text>
</g>
<!-- review&#45;&gt;read -->
<g id="edge24" class="edge">
<title>review&#45;&gt;read</title>
<path fill="none" stroke="black" d="M380.92,-112.82C410,-121.58 454.04,-139.89 474,-174 487.03,-196.27 482.54,-207.7 474,-232.05 451.39,-296.5 435.57,-315.3 378,-352.05 346.43,-372.2 304.14,-380.75 273.75,-384.37"/>
<polygon fill="black" stroke="black" points="273.42,-380.89 263.84,-385.41 274.15,-387.85 273.42,-380.89"/>
<text text-anchor="middle" x="492.5" y="-251.75" font-family="Helvetica,Arial,sans-serif" font-size="14.00">reviewer</text>
</g>
</g>
</svg>
