<?xml version="1.0" encoding="UTF-8" standalone="no"?>
<!DOCTYPE svg PUBLIC "-//W3C//DTD SVG 1.1//EN"
 "http://www.w3.org/Graphics/SVG/1.1/DTD/svg11.dtd">
<!-- Generated by graphviz version 11.0.0 (0)
 -->
<!-- Title: workflow_transitions Pages: 1 -->
<svg width="612pt" height="616pt"
 viewBox="0.00 0.00 612.00 615.94" xmlns="http://www.w3.org/2000/svg" xmlns:xlink="http://www.w3.org/1999/xlink">
<g id="graph0" class="graph" transform="scale(1 1) rotate(0) translate(4 611.94)">
<title>workflow_transitions</title>
<polygon fill="white" stroke="none" points="-4,4 -4,-611.94 608,-611.94 608,4 -4,4"/>
<!-- start -->
<g id="node1" class="node">
<title>start</title>
<ellipse fill="none" stroke="black" cx="298" cy="-575.99" rx="27.95" ry="27.95"/>
<ellipse fill="none" stroke="black" cx="298" cy="-575.99" rx="31.95" ry="31.95"/>
<text text-anchor="middle" x="298" y="-570.19" font-family="Helvetica,Arial,sans-serif" font-size="14.00">start</text>
</g>
<!-- new -->
<g id="node7" class="node">
<title>new</title>
<ellipse fill="none" stroke="black" cx="298" cy="-475.05" rx="27" ry="18"/>
<text text-anchor="middle" x="298" y="-469.25" font-family="Helvetica,Arial,sans-serif" font-size="14.00">new</text>
</g>
<!-- start&#45;&gt;new -->
<g id="edge1" class="edge">
<title>start&#45;&gt;new</title>
<path fill="none" stroke="black" d="M298,-543.69C298,-531.2 298,-516.92 298,-504.72"/>
<polygon fill="black" stroke="black" points="301.5,-504.85 298,-494.85 294.5,-504.85 301.5,-504.85"/>
<text text-anchor="middle" x="323.5" y="-512.75" font-family="Helvetica,Arial,sans-serif" font-size="14.00">importer</text>
</g>
<!-- read -->
<g id="node2" class="node">
<title>read</title>
<polygon fill="none" stroke="black" points="268,-406.05 214,-406.05 214,-370.05 268,-370.05 268,-406.05"/>
<text text-anchor="middle" x="241" y="-382.25" font-family="Helvetica,Arial,sans-serif" font-size="14.00">read</text>
</g>
<!-- assessing -->
<g id="node3" class="node">
<title>assessing</title>
<polygon fill="none" stroke="black" points="427,-319.05 351,-319.05 351,-283.05 427,-283.05 427,-319.05"/>
<text text-anchor="middle" x="389" y="-295.25" font-family="Helvetica,Arial,sans-serif" font-size="14.00">assessing</text>
</g>
<!-- read&#45;&gt;assessing -->
<g id="edge17" class="edge">
<title>read&#45;&gt;assessing</title>
<path fill="none" stroke="black" d="M268.44,-374.73C282.06,-368.36 298.62,-360.22 313,-352.05 321.21,-347.38 338.32,-336.17 354.23,-325.54"/>
<polygon fill="black" stroke="black" points="355.77,-328.72 362.13,-320.25 351.87,-322.91 355.77,-328.72"/>
<text text-anchor="middle" x="351.88" y="-338.75" font-family="Helvetica,Arial,sans-serif" font-size="14.00">editor</text>
</g>
<!-- delete -->
<g id="node6" class="node">
<title>delete</title>
<polygon fill="none" stroke="black" points="226,-232.05 172,-232.05 172,-196.05 226,-196.05 226,-232.05"/>
<text text-anchor="middle" x="199" y="-208.25" font-family="Helvetica,Arial,sans-serif" font-size="14.00">delete</text>
</g>
<!-- read&#45;&gt;delete -->
<g id="edge18" class="edge">
<title>read&#45;&gt;delete</title>
<path fill="none" stroke="black" d="M237.94,-369.6C234.14,-348.83 227.17,-313.15 219,-283.05 216.79,-274.91 215.47,-273.11 213,-265.05 210.84,-258 208.64,-250.36 206.63,-243.22"/>
<polygon fill="black" stroke="black" points="210.03,-242.39 203.99,-233.69 203.29,-244.26 210.03,-242.39"/>
<text text-anchor="middle" x="272.75" y="-295.25" font-family="Helvetica,Arial,sans-serif" font-size="14.00">editor, reviewer</text>
</g>
<!-- read&#45;&gt;new -->
<g id="edge19" class="edge">
<title>read&#45;&gt;new</title>
<path fill="none" stroke="black" d="M260.92,-406.42C266.26,-411.72 271.73,-417.8 276,-424.05 280.68,-430.88 284.72,-438.87 288.03,-446.44"/>
<polygon fill="black" stroke="black" points="284.75,-447.67 291.75,-455.62 291.24,-445.04 284.75,-447.67"/>
<text text-anchor="middle" x="300.88" y="-425.75" font-family="Helvetica,Arial,sans-serif" font-size="14.00">editor</text>
</g>
<!-- assessing&#45;&gt;read -->
<g id="edge9" class="edge">
<title>assessing&#45;&gt;read</title>
<path fill="none" stroke="black" d="M350.68,-314.64C346.07,-316.13 341.43,-317.63 337,-319.05 311.39,-327.22 301.29,-321.65 279.25,-337.05 270.4,-343.23 262.68,-352.09 256.54,-360.64"/>
<polygon fill="black" stroke="black" points="253.78,-358.48 251.14,-368.74 259.6,-362.36 253.78,-358.48"/>
<text text-anchor="middle" x="295.88" y="-338.75" font-family="Helvetica,Arial,sans-serif" font-size="14.00">editor</text>
</g>
<!-- review -->
<g id="node4" class="node">
<title>review</title>
<polygon fill="none" stroke="black" points="345.5,-36 290.5,-36 290.5,0 345.5,0 345.5,-36"/>
<text text-anchor="middle" x="318" y="-12.2" font-family="Helvetica,Arial,sans-serif" font-size="14.00">review</text>
</g>
<!-- assessing&#45;&gt;review -->
<g id="edge10" class="edge">
<title>assessing&#45;&gt;review</title>
<path fill="none" stroke="black" d="M399.49,-282.59C406.85,-269.27 416.06,-250.18 420,-232.05 429.26,-189.41 406.26,-92.62 403,-87 391.72,-67.55 372.57,-51.49 355.3,-39.87"/>
<polygon fill="black" stroke="black" points="357.54,-37.15 347.23,-34.7 353.76,-43.04 357.54,-37.15"/>
<text text-anchor="middle" x="436.88" y="-164.75" font-family="Helvetica,Arial,sans-serif" font-size="14.00">editor</text>
</g>
<!-- assessing&#45;&gt;delete -->
<g id="edge7" class="edge">
<title>assessing&#45;&gt;delete</title>
<path fill="none" stroke="black" d="M350.51,-287.88C333.05,-281.84 312.36,-273.93 294.5,-265.05 283.4,-259.53 281.81,-256.1 271,-250.05 260.06,-243.92 247.9,-237.77 236.72,-232.37"/>
<polygon fill="black" stroke="black" points="238.29,-229.24 227.76,-228.1 235.28,-235.56 238.29,-229.24"/>
<text text-anchor="middle" x="339.75" y="-251.75" font-family="Helvetica,Arial,sans-serif" font-size="14.00">editor, reviewer</text>
</g>
<!-- assessing&#45;&gt;new -->
<g id="edge8" class="edge">
<title>assessing&#45;&gt;new</title>
<path fill="none" stroke="black" d="M383.53,-319.45C380.27,-329.2 375.84,-341.48 371,-352.05 352.53,-392.4 345.46,-401.38 322,-439.05 320.01,-442.24 317.87,-445.54 315.7,-448.8"/>
<polygon fill="black" stroke="black" points="312.88,-446.72 310.14,-456.96 318.66,-450.66 312.88,-446.72"/>
<text text-anchor="middle" x="387.5" y="-382.25" font-family="Helvetica,Arial,sans-serif" font-size="14.00">importer</text>
</g>
<!-- review&#45;&gt;read -->
<g id="edge24" class="edge">
<title>review&#45;&gt;read</title>
<path fill="none" stroke="black" d="M290.04,-21.37C224.65,-27.54 64.87,-46.54 33,-87 -48.93,-191.01 64.39,-270.89 169,-352.05 179.34,-360.07 191.82,-366.93 203.46,-372.39"/>
<polygon fill="black" stroke="black" points="201.89,-375.52 212.45,-376.39 204.73,-369.12 201.89,-375.52"/>
<text text-anchor="middle" x="59.5" y="-208.25" font-family="Helvetica,Arial,sans-serif" font-size="14.00">reviewer</text>
</g>
<!-- review&#45;&gt;assessing -->
<g id="edge21" class="edge">
<title>review&#45;&gt;assessing</title>
<path fill="none" stroke="black" d="M345.69,-27.84C361.42,-33.7 380.92,-42.45 396,-54 440.27,-87.89 446.07,-108.59 458,-163.05 468.2,-209.59 451.15,-225.22 425,-265.05 422.83,-268.35 420.3,-271.59 417.6,-274.67"/>
<polygon fill="black" stroke="black" points="415.16,-272.16 410.77,-281.8 420.21,-277 415.16,-272.16"/>
<text text-anchor="middle" x="485.5" y="-164.75" font-family="Helvetica,Arial,sans-serif" font-size="14.00">reviewer</text>
</g>
<!-- archived -->
<g id="node5" class="node">
<title>archived</title>
<polygon fill="none" stroke="black" points="272.5,-134.02 205.5,-134.02 205.5,-98.02 272.5,-98.02 272.5,-134.02"/>
<text text-anchor="middle" x="239" y="-110.22" font-family="Helvetica,Arial,sans-serif" font-size="14.00">archived</text>
</g>
<!-- review&#45;&gt;archived -->
<g id="edge20" class="edge">
<title>review&#45;&gt;archived</title>
<path fill="none" stroke="black" d="M301.75,-36.19C296.61,-41.78 290.98,-48.07 286,-54 276.69,-65.09 266.85,-77.71 258.59,-88.59"/>
<polygon fill="black" stroke="black" points="255.92,-86.32 252.7,-96.41 261.51,-90.53 255.92,-86.32"/>
<text text-anchor="middle" x="311.5" y="-55.7" font-family="Helvetica,Arial,sans-serif" font-size="14.00">reviewer</text>
</g>
<!-- review&#45;&gt;delete -->
<g id="edge22" class="edge">
<title>review&#45;&gt;delete</title>
<path fill="none" stroke="black" d="M329.67,-36.46C332.67,-41.85 335.47,-47.97 337,-54 350.68,-107.88 357.59,-136.2 321,-178.05 300.31,-201.7 264.81,-209.86 237.42,-212.45"/>
<polygon fill="black" stroke="black" points="237.48,-208.94 227.75,-213.14 237.98,-215.92 237.48,-208.94"/>
<text text-anchor="middle" x="373.5" y="-110.22" font-family="Helvetica,Arial,sans-serif" font-size="14.00">reviewer</text>
</g>
<!-- review&#45;&gt;new -->
<g id="edge23" class="edge">
<title>review&#45;&gt;new</title>
<path fill="none" stroke="black" d="M345.88,-18.13C408.13,-17.76 553,-26.44 553,-115.02 553,-389.05 553,-389.05 553,-389.05 553,-434.36 406.27,-459.83 335.42,-469.5"/>
<polygon fill="black" stroke="black" points="335.28,-465.98 325.83,-470.77 336.2,-472.92 335.28,-465.98"/>
<text text-anchor="middle" x="578.5" y="-251.75" font-family="Helvetica,Arial,sans-serif" font-size="14.00">importer</text>
</g>
<!-- archived&#45;&gt;read -->
<g id="edge5" class="edge">
<title>archived&#45;&gt;read</title>
<path fill="none" stroke="black" d="M216.05,-134.44C199.43,-147.07 179.76,-162.11 179,-163.05 148.28,-200.72 127.69,-217.89 139.5,-265.05 150.15,-307.57 156.2,-319.89 186,-352.05 191.27,-357.73 197.66,-362.89 204.2,-367.38"/>
<polygon fill="black" stroke="black" points="202.17,-370.24 212.48,-372.66 205.93,-364.34 202.17,-370.24"/>
<text text-anchor="middle" x="158.75" y="-251.75" font-family="Helvetica,Arial,sans-serif" font-size="14.00">admin</text>
</g>
<!-- archived&#45;&gt;assessing -->
<g id="edge2" class="edge">
<title>archived&#45;&gt;assessing</title>
<path fill="none" stroke="black" d="M272.98,-132.05C288.6,-139.93 306.77,-150.55 321,-163.05 357.28,-194.88 369.41,-204.72 386,-250.05 388.45,-256.74 389.64,-264.28 390.12,-271.43"/>
<polygon fill="black" stroke="black" points="386.62,-271.45 390.34,-281.37 393.62,-271.3 386.62,-271.45"/>
<text text-anchor="middle" x="396.75" y="-208.25" font-family="Helvetica,Arial,sans-serif" font-size="14.00">admin</text>
</g>
<!-- archived&#45;&gt;review -->
<g id="edge6" class="edge">
<title>archived&#45;&gt;review</title>
<path fill="none" stroke="black" d="M228.41,-97.58C222,-84.56 216.62,-66.86 225.5,-54 237.57,-36.52 259.58,-27.76 279.1,-23.38"/>
<polygon fill="black" stroke="black" points="279.55,-26.85 288.73,-21.55 278.25,-19.98 279.55,-26.85"/>
<text text-anchor="middle" x="243.75" y="-55.7" font-family="Helvetica,Arial,sans-serif" font-size="14.00">admin</text>
</g>
<!-- archived&#45;&gt;delete -->
<g id="edge3" class="edge">
<title>archived&#45;&gt;delete</title>
<path fill="none" stroke="black" d="M209.34,-134.51C199.55,-141.96 189.82,-151.59 184.5,-163.05 181.26,-170.01 181.78,-177.87 183.9,-185.25"/>
<polygon fill="black" stroke="black" points="180.63,-186.48 187.54,-194.51 187.14,-183.92 180.63,-186.48"/>
<text text-anchor="middle" x="230.75" y="-164.75" font-family="Helvetica,Arial,sans-serif" font-size="14.00">editor, reviewer</text>
</g>
<!-- archived&#45;&gt;new -->
<g id="edge4" class="edge">
<title>archived&#45;&gt;new</title>
<path fill="none" stroke="black" d="M218.76,-134.46C213.54,-138.35 207.77,-142.16 202,-145.05 200.85,-145.62 24.95,-195.18 24,-196.05 2.56,-215.47 0,-227.62 0,-256.55 0,-389.05 0,-389.05 0,-389.05 0,-442.5 179.58,-464.19 259.93,-471.21"/>
<polygon fill="black" stroke="black" points="259.26,-474.67 269.52,-472.02 259.85,-467.69 259.26,-474.67"/>
<text text-anchor="middle" x="25.5" y="-295.25" font-family="Helvetica,Arial,sans-serif" font-size="14.00">importer</text>
</g>
<!-- delete&#45;&gt;read -->
<g id="edge14" class="edge">
<title>delete&#45;&gt;read</title>
<path fill="none" stroke="black" d="M190.7,-232.51C181.86,-253.61 170.55,-289.91 181.5,-319.05 187.58,-335.23 199.46,-350.09 211.01,-361.76"/>
<polygon fill="black" stroke="black" points="208.54,-364.24 218.19,-368.62 213.38,-359.18 208.54,-364.24"/>
<text text-anchor="middle" x="200.75" y="-295.25" font-family="Helvetica,Arial,sans-serif" font-size="14.00">admin</text>
</g>
<!-- delete&#45;&gt;assessing -->
<g id="edge13" class="edge">
<title>delete&#45;&gt;assessing</title>
<path fill="none" stroke="black" d="M205.06,-232.11C209.92,-243.27 217.88,-257.19 229.5,-265.05 269.63,-292.18 289.96,-271.49 337,-283.05 337.83,-283.25 338.67,-283.46 339.51,-283.68"/>
<polygon fill="black" stroke="black" points="338.54,-287.04 349.11,-286.36 340.42,-280.3 338.54,-287.04"/>
<text text-anchor="middle" x="247.75" y="-251.75" font-family="Helvetica,Arial,sans-serif" font-size="14.00">admin</text>
</g>
<!-- delete&#45;&gt;review -->
<g id="edge15" class="edge">
<title>delete&#45;&gt;review</title>
<path fill="none" stroke="black" d="M185.19,-195.78C166.83,-170.57 138.95,-122.8 159.5,-87 183.55,-45.11 240.22,-29.01 278.86,-22.83"/>
<polygon fill="black" stroke="black" points="279.31,-26.31 288.71,-21.43 278.32,-19.38 279.31,-26.31"/>
<text text-anchor="middle" x="178.75" y="-110.22" font-family="Helvetica,Arial,sans-serif" font-size="14.00">admin</text>
</g>
<!-- delete&#45;&gt;archived -->
<g id="edge12" class="edge">
<title>delete&#45;&gt;archived</title>
<path fill="none" stroke="black" d="M226.39,-208.35C243.82,-203.79 265.11,-194.96 276,-178.05 283.41,-166.54 277.53,-153.6 268.46,-142.61"/>
<polygon fill="black" stroke="black" points="271.1,-140.31 261.72,-135.38 265.98,-145.08 271.1,-140.31"/>
<text text-anchor="middle" x="297.75" y="-164.75" font-family="Helvetica,Arial,sans-serif" font-size="14.00">admin</text>
</g>
<!-- end -->
<g id="node8" class="node">
<title>end</title>
<ellipse fill="none" stroke="black" cx="71" cy="-116.02" rx="25.02" ry="25.02"/>
<ellipse fill="none" stroke="black" cx="71" cy="-116.02" rx="29.02" ry="29.02"/>
<text text-anchor="middle" x="71" y="-110.22" font-family="Helvetica,Arial,sans-serif" font-size="14.00">end</text>
</g>
<!-- delete&#45;&gt;end -->
<g id="edge11" class="edge">
<title>delete&#45;&gt;end</title>
<path fill="none" stroke="black" d="M171.65,-209.56C149.52,-205.44 118.81,-196.63 98.5,-178.05 91.69,-171.81 86.46,-163.57 82.48,-155.17"/>
<polygon fill="black" stroke="black" points="85.73,-153.87 78.67,-145.97 79.27,-156.55 85.73,-153.87"/>
<text text-anchor="middle" x="117.75" y="-164.75" font-family="Helvetica,Arial,sans-serif" font-size="14.00">admin</text>
</g>
<!-- new&#45;&gt;read -->
<g id="edge16" class="edge">
<title>new&#45;&gt;read</title>
<path fill="none" stroke="black" d="M274.41,-465.55C262.56,-459.96 249.26,-451.36 242.25,-439.05 238.63,-432.68 237.26,-425.09 237.04,-417.77"/>
<polygon fill="black" stroke="black" points="240.54,-417.99 237.48,-407.84 233.55,-417.68 240.54,-417.99"/>
<text text-anchor="middle" x="258.88" y="-425.75" font-family="Helvetica,Arial,sans-serif" font-size="14.00">editor</text>
</g>
</g>
</svg>
