<?xml version="1.0" encoding="UTF-8" standalone="no"?>
<!DOCTYPE svg PUBLIC "-//W3C//DTD SVG 1.1//EN"
 "http://www.w3.org/Graphics/SVG/1.1/DTD/svg11.dtd">
<!-- Generated by graphviz version 2.43.0 (0)
 -->
<!-- Title: workflow_transitions Pages: 1 -->
<svg width="689pt" height="618pt"
 viewBox="0.00 0.00 689.00 617.89" xmlns="http://www.w3.org/2000/svg" xmlns:xlink="http://www.w3.org/1999/xlink">
<g id="graph0" class="graph" transform="scale(1 1) rotate(0) translate(4 613.89)">
<title>workflow_transitions</title>
<polygon fill="white" stroke="transparent" points="-4,4 -4,-613.89 685,-613.89 685,4 -4,4"/>
<!-- start -->
<g id="node1" class="node">
<title>start</title>
<ellipse fill="none" stroke="black" cx="299" cy="-577.29" rx="28.68" ry="28.68"/>
<ellipse fill="none" stroke="black" cx="299" cy="-577.29" rx="32.7" ry="32.7"/>
<text text-anchor="middle" x="299" y="-573.59" font-family="Helvetica,Arial,sans-serif" font-size="14.00">start</text>
</g>
<!-- new -->
<g id="node7" class="node">
<title>new</title>
<ellipse fill="none" stroke="black" cx="299" cy="-475.7" rx="27" ry="18"/>
<text text-anchor="middle" x="299" y="-472" font-family="Helvetica,Arial,sans-serif" font-size="14.00">new</text>
</g>
<!-- start&#45;&gt;new -->
<g id="edge1" class="edge">
<title>start&#45;&gt;new</title>
<path fill="none" stroke="black" d="M299,-544.51C299,-531.47 299,-516.54 299,-504.01"/>
<polygon fill="black" stroke="black" points="302.5,-503.72 299,-493.72 295.5,-503.72 302.5,-503.72"/>
<text text-anchor="middle" x="325" y="-515.5" font-family="Helvetica,Arial,sans-serif" font-size="14.00">importer</text>
</g>
<!-- read -->
<g id="node2" class="node">
<title>read</title>
<polygon fill="none" stroke="black" points="269,-406.7 215,-406.7 215,-370.7 269,-370.7 269,-406.7"/>
<text text-anchor="middle" x="242" y="-385" font-family="Helvetica,Arial,sans-serif" font-size="14.00">read</text>
</g>
<!-- assessing -->
<g id="node3" class="node">
<title>assessing</title>
<polygon fill="none" stroke="black" points="429.5,-319.7 352.5,-319.7 352.5,-283.7 429.5,-283.7 429.5,-319.7"/>
<text text-anchor="middle" x="391" y="-298" font-family="Helvetica,Arial,sans-serif" font-size="14.00">assessing</text>
</g>
<!-- read&#45;&gt;assessing -->
<g id="edge17" class="edge">
<title>read&#45;&gt;assessing</title>
<path fill="none" stroke="black" d="M269.08,-375.5C282.75,-369.1 299.48,-360.9 314,-352.7 318.47,-350.17 337.96,-337.51 356.22,-325.56"/>
<polygon fill="black" stroke="black" points="358.56,-328.21 365,-319.8 354.72,-322.36 358.56,-328.21"/>
<text text-anchor="middle" x="353" y="-341.5" font-family="Helvetica,Arial,sans-serif" font-size="14.00">editor</text>
</g>
<!-- delete -->
<g id="node6" class="node">
<title>delete</title>
<polygon fill="none" stroke="black" points="227,-232.7 173,-232.7 173,-196.7 227,-196.7 227,-232.7"/>
<text text-anchor="middle" x="200" y="-211" font-family="Helvetica,Arial,sans-serif" font-size="14.00">delete</text>
</g>
<!-- read&#45;&gt;delete -->
<g id="edge18" class="edge">
<title>read&#45;&gt;delete</title>
<path fill="none" stroke="black" d="M239,-370.62C235.22,-349.9 228.22,-313.97 220,-283.7 217.79,-275.56 216.47,-273.76 214,-265.7 211.71,-258.23 209.37,-250.09 207.27,-242.59"/>
<polygon fill="black" stroke="black" points="210.63,-241.59 204.59,-232.88 203.88,-243.45 210.63,-241.59"/>
<text text-anchor="middle" x="275" y="-298" font-family="Helvetica,Arial,sans-serif" font-size="14.00">editor, reviewer</text>
</g>
<!-- read&#45;&gt;new -->
<g id="edge19" class="edge">
<title>read&#45;&gt;new</title>
<path fill="none" stroke="black" d="M261.56,-406.71C267.01,-412.09 272.63,-418.31 277,-424.7 281.89,-431.85 286.1,-440.27 289.48,-448.14"/>
<polygon fill="black" stroke="black" points="286.34,-449.7 293.32,-457.68 292.83,-447.09 286.34,-449.7"/>
<text text-anchor="middle" x="303" y="-428.5" font-family="Helvetica,Arial,sans-serif" font-size="14.00">editor</text>
</g>
<!-- assessing&#45;&gt;read -->
<g id="edge9" class="edge">
<title>assessing&#45;&gt;read</title>
<path fill="none" stroke="black" d="M352.23,-315.18C347.44,-316.71 342.61,-318.24 338,-319.7 312.26,-327.82 302.11,-322.21 280,-337.7 270.89,-344.07 263.01,-353.31 256.82,-362.11"/>
<polygon fill="black" stroke="black" points="253.78,-360.36 251.21,-370.64 259.63,-364.21 253.78,-360.36"/>
<text text-anchor="middle" x="297" y="-341.5" font-family="Helvetica,Arial,sans-serif" font-size="14.00">editor</text>
</g>
<!-- review -->
<g id="node4" class="node">
<title>review</title>
<polygon fill="none" stroke="black" points="347,-36 291,-36 291,0 347,0 347,-36"/>
<text text-anchor="middle" x="319" y="-14.3" font-family="Helvetica,Arial,sans-serif" font-size="14.00">review</text>
</g>
<!-- assessing&#45;&gt;review -->
<g id="edge10" class="edge">
<title>assessing&#45;&gt;review</title>
<path fill="none" stroke="black" d="M417.53,-283.68C433.7,-271.64 452.95,-253.89 462,-232.7 468.28,-217.98 465.74,-212.25 462,-196.7 449.2,-143.47 440.83,-129.23 406,-87 391.67,-69.62 372.16,-53.87 355.25,-41.91"/>
<polygon fill="black" stroke="black" points="356.9,-38.8 346.68,-36.02 352.94,-44.57 356.9,-38.8"/>
<text text-anchor="middle" x="474" y="-167.5" font-family="Helvetica,Arial,sans-serif" font-size="14.00">editor</text>
</g>
<!-- assessing&#45;&gt;delete -->
<g id="edge7" class="edge">
<title>assessing&#45;&gt;delete</title>
<path fill="none" stroke="black" d="M352.37,-287.62C330.48,-280.01 305.43,-270.91 295,-265.7 284.08,-260.24 282.62,-256.71 272,-250.7 260.66,-244.28 247.97,-237.86 236.44,-232.32"/>
<polygon fill="black" stroke="black" points="237.62,-229 227.08,-227.88 234.62,-235.32 237.62,-229"/>
<text text-anchor="middle" x="341" y="-254.5" font-family="Helvetica,Arial,sans-serif" font-size="14.00">editor, reviewer</text>
</g>
<!-- assessing&#45;&gt;new -->
<g id="edge8" class="edge">
<title>assessing&#45;&gt;new</title>
<path fill="none" stroke="black" d="M385.08,-320.07C381.6,-329.8 376.92,-342.08 372,-352.7 353.44,-392.77 347.54,-402.33 324,-439.7 321.67,-443.39 319.1,-447.23 316.52,-450.94"/>
<polygon fill="black" stroke="black" points="313.54,-449.1 310.6,-459.28 319.24,-453.16 313.54,-449.1"/>
<text text-anchor="middle" x="389" y="-385" font-family="Helvetica,Arial,sans-serif" font-size="14.00">importer</text>
</g>
<!-- review&#45;&gt;read -->
<g id="edge24" class="edge">
<title>review&#45;&gt;read</title>
<path fill="none" stroke="black" d="M290.98,-21.32C225.46,-27.4 65.43,-46.2 34,-87 -47.07,-192.26 64.87,-272.77 171,-352.7 181.38,-360.51 193.77,-367.33 205.28,-372.82"/>
<polygon fill="black" stroke="black" points="204.12,-376.14 214.67,-377.11 207.03,-369.77 204.12,-376.14"/>
<text text-anchor="middle" x="61" y="-211" font-family="Helvetica,Arial,sans-serif" font-size="14.00">reviewer</text>
</g>
<!-- review&#45;&gt;assessing -->
<g id="edge21" class="edge">
<title>review&#45;&gt;assessing</title>
<path fill="none" stroke="black" d="M347.09,-30.54C361.47,-36.84 379.04,-45.14 394,-54 451.02,-87.77 474.45,-100.69 495,-163.7 509.91,-209.4 493.4,-232.11 459,-265.7 453.12,-271.43 446.11,-276.44 438.86,-280.74"/>
<polygon fill="black" stroke="black" points="436.71,-277.93 429.62,-285.8 440.07,-284.07 436.71,-277.93"/>
<text text-anchor="middle" x="544" y="-167.5" font-family="Helvetica,Arial,sans-serif" font-size="14.00">reviewer, editor</text>
</g>
<!-- archived -->
<g id="node5" class="node">
<title>archived</title>
<polygon fill="none" stroke="black" points="275,-134.35 207,-134.35 207,-98.35 275,-98.35 275,-134.35"/>
<text text-anchor="middle" x="241" y="-112.65" font-family="Helvetica,Arial,sans-serif" font-size="14.00">archived</text>
</g>
<!-- review&#45;&gt;archived -->
<g id="edge20" class="edge">
<title>review&#45;&gt;archived</title>
<path fill="none" stroke="black" d="M302.71,-36.15C297.56,-41.74 291.94,-48.04 287,-54 277.39,-65.6 267.29,-78.93 259,-90.2"/>
<polygon fill="black" stroke="black" points="256.13,-88.2 253.07,-98.35 261.78,-92.32 256.13,-88.2"/>
<text text-anchor="middle" x="313" y="-57.8" font-family="Helvetica,Arial,sans-serif" font-size="14.00">reviewer</text>
</g>
<!-- review&#45;&gt;delete -->
<g id="edge22" class="edge">
<title>review&#45;&gt;delete</title>
<path fill="none" stroke="black" d="M331.07,-36.03C334.3,-41.51 337.35,-47.78 339,-54 353.34,-108 359.81,-136.66 323,-178.7 301.8,-202.91 265.16,-210.92 237.37,-213.32"/>
<polygon fill="black" stroke="black" points="236.95,-209.84 227.2,-213.99 237.41,-216.83 236.95,-209.84"/>
<text text-anchor="middle" x="376" y="-112.65" font-family="Helvetica,Arial,sans-serif" font-size="14.00">reviewer</text>
</g>
<!-- review&#45;&gt;new -->
<g id="edge23" class="edge">
<title>review&#45;&gt;new</title>
<path fill="none" stroke="black" d="M347.06,-21.65C423.37,-29.63 629,-56.59 629,-115.35 629,-389.7 629,-389.7 629,-389.7 629,-449.61 422.41,-467.93 336.15,-472.96"/>
<polygon fill="black" stroke="black" points="335.8,-469.48 326.01,-473.53 336.18,-476.47 335.8,-469.48"/>
<text text-anchor="middle" x="655" y="-254.5" font-family="Helvetica,Arial,sans-serif" font-size="14.00">importer</text>
</g>
<!-- archived&#45;&gt;read -->
<g id="edge5" class="edge">
<title>archived&#45;&gt;read</title>
<path fill="none" stroke="black" d="M217.7,-134.36C200.77,-146.78 180.55,-161.78 179,-163.7 166.47,-179.2 128.25,-224.69 139,-265.7 150.26,-308.62 157.61,-320.36 188,-352.7 193.26,-358.29 199.59,-363.41 206.03,-367.9"/>
<polygon fill="black" stroke="black" points="204.52,-371.08 214.8,-373.61 208.34,-365.22 204.52,-371.08"/>
<text text-anchor="middle" x="158" y="-254.5" font-family="Helvetica,Arial,sans-serif" font-size="14.00">admin</text>
</g>
<!-- archived&#45;&gt;assessing -->
<g id="edge2" class="edge">
<title>archived&#45;&gt;assessing</title>
<path fill="none" stroke="black" d="M275.02,-132.48C290.64,-140.41 308.81,-151.11 323,-163.7 358.91,-195.55 370.22,-205.72 387,-250.7 389.65,-257.79 390.96,-265.84 391.53,-273.38"/>
<polygon fill="black" stroke="black" points="388.04,-273.67 391.92,-283.53 395.04,-273.4 388.04,-273.67"/>
<text text-anchor="middle" x="418.5" y="-211" font-family="Helvetica,Arial,sans-serif" font-size="14.00">admin, editor</text>
</g>
<!-- archived&#45;&gt;review -->
<g id="edge6" class="edge">
<title>archived&#45;&gt;review</title>
<path fill="none" stroke="black" d="M208.52,-98.3C190.06,-86.35 172.84,-69.75 185,-54 196.67,-38.89 245.44,-29.06 280.78,-23.77"/>
<polygon fill="black" stroke="black" points="281.4,-27.22 290.8,-22.34 280.41,-20.29 281.4,-27.22"/>
<text text-anchor="middle" x="224.5" y="-57.8" font-family="Helvetica,Arial,sans-serif" font-size="14.00">admin, editor</text>
</g>
<!-- archived&#45;&gt;delete -->
<g id="edge3" class="edge">
<title>archived&#45;&gt;delete</title>
<path fill="none" stroke="black" d="M211.13,-134.4C200.88,-141.94 190.59,-151.82 185,-163.7 181.53,-171.08 182.35,-179.45 184.88,-187.2"/>
<polygon fill="black" stroke="black" points="181.71,-188.69 188.8,-196.57 188.17,-185.99 181.71,-188.69"/>
<text text-anchor="middle" x="231" y="-167.5" font-family="Helvetica,Arial,sans-serif" font-size="14.00">editor, reviewer</text>
</g>
<!-- archived&#45;&gt;new -->
<g id="edge4" class="edge">
<title>archived&#45;&gt;new</title>
<path fill="none" stroke="black" d="M220.4,-134.37C214.69,-138.5 208.32,-142.61 202,-145.7 154.21,-169.02 138.12,-164.06 87,-178.7 59,-186.71 45.59,-177.15 24,-196.7 2.55,-216.11 0,-228.27 0,-257.2 0,-389.7 0,-389.7 0,-389.7 0,-443.6 182.09,-465.14 262.07,-472"/>
<polygon fill="black" stroke="black" points="261.95,-475.5 272.2,-472.83 262.52,-468.52 261.95,-475.5"/>
<text text-anchor="middle" x="26" y="-298" font-family="Helvetica,Arial,sans-serif" font-size="14.00">importer</text>
</g>
<!-- delete&#45;&gt;read -->
<g id="edge14" class="edge">
<title>delete&#45;&gt;read</title>
<path fill="none" stroke="black" d="M191.7,-232.78C182.67,-253.83 170.92,-290.39 182,-319.7 188.36,-336.53 201,-351.88 213.05,-363.72"/>
<polygon fill="black" stroke="black" points="210.72,-366.34 220.41,-370.63 215.51,-361.23 210.72,-366.34"/>
<text text-anchor="middle" x="201" y="-298" font-family="Helvetica,Arial,sans-serif" font-size="14.00">admin</text>
</g>
<!-- delete&#45;&gt;assessing -->
<g id="edge13" class="edge">
<title>delete&#45;&gt;assessing</title>
<path fill="none" stroke="black" d="M205.89,-232.76C210.64,-243.92 218.45,-257.83 230,-265.7 270.22,-293.08 290.71,-272.23 338,-283.7 339.47,-284.05 340.95,-284.43 342.45,-284.82"/>
<polygon fill="black" stroke="black" points="341.82,-288.28 352.4,-287.6 343.71,-281.54 341.82,-288.28"/>
<text text-anchor="middle" x="249" y="-254.5" font-family="Helvetica,Arial,sans-serif" font-size="14.00">admin</text>
</g>
<!-- delete&#45;&gt;review -->
<g id="edge15" class="edge">
<title>delete&#45;&gt;review</title>
<path fill="none" stroke="black" d="M186.26,-196.43C176.78,-183.35 165.02,-164.48 160,-145.7 149.3,-105.65 144.47,-79.69 177,-54 206.72,-30.53 250.01,-22.53 280.96,-19.94"/>
<polygon fill="black" stroke="black" points="281.22,-23.43 290.95,-19.25 280.74,-16.44 281.22,-23.43"/>
<text text-anchor="middle" x="179" y="-112.65" font-family="Helvetica,Arial,sans-serif" font-size="14.00">admin</text>
</g>
<!-- delete&#45;&gt;archived -->
<g id="edge12" class="edge">
<title>delete&#45;&gt;archived</title>
<path fill="none" stroke="black" d="M227,-209.1C244.51,-204.57 266.03,-195.73 277,-178.7 284.66,-166.8 278.25,-153.27 268.84,-141.94"/>
<polygon fill="black" stroke="black" points="271.33,-139.48 261.97,-134.5 266.18,-144.23 271.33,-139.48"/>
<text text-anchor="middle" x="300" y="-167.5" font-family="Helvetica,Arial,sans-serif" font-size="14.00">admin</text>
</g>
<!-- end -->
<g id="node8" class="node">
<title>end</title>
<ellipse fill="none" stroke="black" cx="72" cy="-116.35" rx="25.22" ry="25.22"/>
<ellipse fill="none" stroke="black" cx="72" cy="-116.35" rx="29.2" ry="29.2"/>
<text text-anchor="middle" x="72" y="-112.65" font-family="Helvetica,Arial,sans-serif" font-size="14.00">end</text>
</g>
<!-- delete&#45;&gt;end -->
<g id="edge11" class="edge">
<title>delete&#45;&gt;end</title>
<path fill="none" stroke="black" d="M172.92,-210.37C150.62,-206.34 119.46,-197.57 99,-178.7 91.9,-172.15 86.57,-163.4 82.6,-154.57"/>
<polygon fill="black" stroke="black" points="85.76,-153.04 78.81,-145.04 79.26,-155.63 85.76,-153.04"/>
<text text-anchor="middle" x="118" y="-167.5" font-family="Helvetica,Arial,sans-serif" font-size="14.00">admin</text>
</g>
<!-- new&#45;&gt;read -->
<g id="edge16" class="edge">
<title>new&#45;&gt;read</title>
<path fill="none" stroke="black" d="M275.57,-466.37C263.59,-460.8 250.07,-452.16 243,-439.7 239.17,-432.95 237.89,-424.82 237.85,-417.09"/>
<polygon fill="black" stroke="black" points="241.35,-417.16 238.44,-406.98 234.37,-416.76 241.35,-417.16"/>
<text text-anchor="middle" x="260" y="-428.5" font-family="Helvetica,Arial,sans-serif" font-size="14.00">editor</text>
</g>
</g>
</svg>
