<?xml version="1.0" encoding="UTF-8" standalone="no"?>
<!DOCTYPE svg PUBLIC "-//W3C//DTD SVG 1.1//EN"
 "http://www.w3.org/Graphics/SVG/1.1/DTD/svg11.dtd">
<!-- Generated by graphviz version 11.0.0 (0)
 -->
<!-- Title: workflow_transitions Pages: 1 -->
<svg width="871pt" height="616pt"
 viewBox="0.00 0.00 871.00 615.94" xmlns="http://www.w3.org/2000/svg" xmlns:xlink="http://www.w3.org/1999/xlink">
<g id="graph0" class="graph" transform="scale(1 1) rotate(0) translate(4 611.94)">
<title>workflow_transitions</title>
<polygon fill="white" stroke="none" points="-4,4 -4,-611.94 867,-611.94 867,4 -4,4"/>
<!-- start -->
<g id="node1" class="node">
<title>start</title>
<ellipse fill="none" stroke="black" cx="573" cy="-575.99" rx="27.95" ry="27.95"/>
<ellipse fill="none" stroke="black" cx="573" cy="-575.99" rx="31.95" ry="31.95"/>
<text text-anchor="middle" x="573" y="-570.19" font-family="Helvetica,Arial,sans-serif" font-size="14.00">start</text>
</g>
<!-- new -->
<g id="node3" class="node">
<title>new</title>
<polygon fill="none" stroke="black" points="600,-493.05 546,-493.05 546,-457.05 600,-457.05 600,-493.05"/>
<text text-anchor="middle" x="573" y="-469.25" font-family="Helvetica,Arial,sans-serif" font-size="14.00">new</text>
</g>
<!-- start&#45;&gt;new -->
<g id="edge1" class="edge">
<title>start&#45;&gt;new</title>
<path fill="none" stroke="black" d="M573,-543.69C573,-531.2 573,-516.92 573,-504.72"/>
<polygon fill="black" stroke="black" points="576.5,-504.85 573,-494.85 569.5,-504.85 576.5,-504.85"/>
<text text-anchor="middle" x="598.5" y="-512.75" font-family="Helvetica,Arial,sans-serif" font-size="14.00">importer</text>
</g>
<!-- end -->
<g id="node2" class="node">
<title>end</title>
<ellipse fill="none" stroke="black" cx="387" cy="-203.02" rx="25.02" ry="25.02"/>
<ellipse fill="none" stroke="black" cx="387" cy="-203.02" rx="29.02" ry="29.02"/>
<text text-anchor="middle" x="387" y="-197.22" font-family="Helvetica,Arial,sans-serif" font-size="14.00">end</text>
</g>
<!-- read -->
<g id="node7" class="node">
<title>read</title>
<polygon fill="none" stroke="black" points="345,-406.05 291,-406.05 291,-370.05 345,-370.05 345,-406.05"/>
<text text-anchor="middle" x="318" y="-382.25" font-family="Helvetica,Arial,sans-serif" font-size="14.00">read</text>
</g>
<!-- new&#45;&gt;read -->
<g id="edge17" class="edge">
<title>new&#45;&gt;read</title>
<path fill="none" stroke="black" d="M545.65,-471.11C511.63,-466.84 452.18,-457.36 404.25,-439.05 386.34,-432.2 367.79,-421.93 352.5,-412.46"/>
<polygon fill="black" stroke="black" points="354.56,-409.62 344.24,-407.22 350.81,-415.53 354.56,-409.62"/>
<text text-anchor="middle" x="420.88" y="-425.75" font-family="Helvetica,Arial,sans-serif" font-size="14.00">editor</text>
</g>
<!-- archived -->
<g id="node4" class="node">
<title>archived</title>
<polygon fill="none" stroke="black" points="485.5,-123 418.5,-123 418.5,-87 485.5,-87 485.5,-123"/>
<text text-anchor="middle" x="452" y="-99.2" font-family="Helvetica,Arial,sans-serif" font-size="14.00">archived</text>
</g>
<!-- archived&#45;&gt;new -->
<g id="edge4" class="edge">
<title>archived&#45;&gt;new</title>
<path fill="none" stroke="black" d="M485.71,-108C540.54,-113.27 643,-132.43 643,-202.02 643,-389.05 643,-389.05 643,-389.05 643,-413.52 625.49,-434.78 607.98,-449.91"/>
<polygon fill="black" stroke="black" points="606.19,-446.86 600.64,-455.88 610.61,-452.29 606.19,-446.86"/>
<text text-anchor="middle" x="691" y="-295.25" font-family="Helvetica,Arial,sans-serif" font-size="14.00">admin, importer</text>
</g>
<!-- assessing -->
<g id="node5" class="node">
<title>assessing</title>
<polygon fill="none" stroke="black" points="293,-36 217,-36 217,0 293,0 293,-36"/>
<text text-anchor="middle" x="255" y="-12.2" font-family="Helvetica,Arial,sans-serif" font-size="14.00">assessing</text>
</g>
<!-- archived&#45;&gt;assessing -->
<g id="edge2" class="edge">
<title>archived&#45;&gt;assessing</title>
<path fill="none" stroke="black" d="M438.28,-86.74C428.68,-75.79 414.94,-62.19 400,-54 370.53,-37.85 333.68,-29.08 304.5,-24.36"/>
<polygon fill="black" stroke="black" points="305.22,-20.93 294.82,-22.91 304.19,-27.85 305.22,-20.93"/>
<text text-anchor="middle" x="438.75" y="-55.7" font-family="Helvetica,Arial,sans-serif" font-size="14.00">admin</text>
</g>
<!-- delete -->
<g id="node6" class="node">
<title>delete</title>
<polygon fill="none" stroke="black" points="388,-319.05 334,-319.05 334,-283.05 388,-283.05 388,-319.05"/>
<text text-anchor="middle" x="361" y="-295.25" font-family="Helvetica,Arial,sans-serif" font-size="14.00">delete</text>
</g>
<!-- archived&#45;&gt;delete -->
<g id="edge3" class="edge">
<title>archived&#45;&gt;delete</title>
<path fill="none" stroke="black" d="M452.42,-123.13C452.33,-154.41 448.08,-221.52 416,-265.05 411.15,-271.62 404.67,-277.27 397.85,-282"/>
<polygon fill="black" stroke="black" points="396.38,-278.79 389.76,-287.06 400.09,-284.72 396.38,-278.79"/>
<text text-anchor="middle" x="473.5" y="-197.22" font-family="Helvetica,Arial,sans-serif" font-size="14.00">reviewer</text>
</g>
<!-- archived&#45;&gt;read -->
<g id="edge5" class="edge">
<title>archived&#45;&gt;read</title>
<path fill="none" stroke="black" d="M485.86,-118.68C509.36,-129.48 538.9,-147.5 553,-174 565.12,-196.77 564.14,-208.78 553,-232.05 514.7,-312.06 412.59,-356.53 356.4,-375.63"/>
<polygon fill="black" stroke="black" points="355.32,-372.3 346.91,-378.75 357.5,-378.95 355.32,-372.3"/>
<text text-anchor="middle" x="559.75" y="-251.75" font-family="Helvetica,Arial,sans-serif" font-size="14.00">admin</text>
</g>
<!-- review -->
<g id="node8" class="node">
<title>review</title>
<polygon fill="none" stroke="black" points="277.5,-221.02 222.5,-221.02 222.5,-185.02 277.5,-185.02 277.5,-221.02"/>
<text text-anchor="middle" x="250" y="-197.22" font-family="Helvetica,Arial,sans-serif" font-size="14.00">review</text>
</g>
<!-- archived&#45;&gt;review -->
<g id="edge6" class="edge">
<title>archived&#45;&gt;review</title>
<path fill="none" stroke="black" d="M418.01,-112.33C400.41,-115.57 378.56,-119.56 359,-123 335.36,-127.16 268.37,-122.99 252.5,-141 244.85,-149.68 243.27,-162.05 243.97,-173.38"/>
<polygon fill="black" stroke="black" points="240.47,-173.62 245.18,-183.11 247.42,-172.76 240.47,-173.62"/>
<text text-anchor="middle" x="270.75" y="-142.7" font-family="Helvetica,Arial,sans-serif" font-size="14.00">admin</text>
</g>
<!-- assessing&#45;&gt;new -->
<g id="edge8" class="edge">
<title>assessing&#45;&gt;new</title>
<path fill="none" stroke="black" d="M293.48,-21.33C412.55,-29.04 767,-56.02 767,-104 767,-389.05 767,-389.05 767,-389.05 767,-456.16 668.39,-470.78 611.78,-473.65"/>
<polygon fill="black" stroke="black" points="611.75,-470.14 601.9,-474.03 612.03,-477.14 611.75,-470.14"/>
<text text-anchor="middle" x="815" y="-251.75" font-family="Helvetica,Arial,sans-serif" font-size="14.00">admin, importer</text>
</g>
<!-- assessing&#45;&gt;delete -->
<g id="edge7" class="edge">
<title>assessing&#45;&gt;delete</title>
<path fill="none" stroke="black" d="M280.7,-36.43C308.68,-57.33 351.15,-95.34 364,-141 365.81,-147.42 366.27,-149.73 364,-156 360.45,-165.79 352.55,-164.21 349,-174 340.22,-198.26 346.75,-206.35 349,-232.05 350.14,-245.03 352.47,-259.26 354.79,-271.32"/>
<polygon fill="black" stroke="black" points="351.34,-271.95 356.74,-281.06 358.2,-270.57 351.34,-271.95"/>
<text text-anchor="middle" x="390.5" y="-142.7" font-family="Helvetica,Arial,sans-serif" font-size="14.00">reviewer</text>
</g>
<!-- assessing&#45;&gt;read -->
<g id="edge9" class="edge">
<title>assessing&#45;&gt;read</title>
<path fill="none" stroke="black" d="M216.82,-33.45C204.51,-38.97 191.17,-45.91 180,-54 104.66,-108.55 25,-150.64 70,-232.05 114.9,-313.28 222.14,-357.54 279.79,-376.2"/>
<polygon fill="black" stroke="black" points="278.59,-379.49 289.18,-379.15 280.69,-372.82 278.59,-379.49"/>
<text text-anchor="middle" x="118" y="-197.22" font-family="Helvetica,Arial,sans-serif" font-size="14.00">admin, importer</text>
</g>
<!-- assessing&#45;&gt;review -->
<g id="edge10" class="edge">
<title>assessing&#45;&gt;review</title>
<path fill="none" stroke="black" d="M266.49,-36.31C274.56,-49.57 284.66,-68.63 289,-87 292.68,-102.57 298.11,-109.85 289,-123 276.02,-141.73 253.98,-122.27 241,-141 234.44,-150.47 234.98,-162.76 237.82,-173.83"/>
<polygon fill="black" stroke="black" points="234.49,-174.9 240.93,-183.31 241.14,-172.72 234.49,-174.9"/>
<text text-anchor="middle" x="309.88" y="-99.2" font-family="Helvetica,Arial,sans-serif" font-size="14.00">editor</text>
</g>
<!-- delete&#45;&gt;end -->
<g id="edge11" class="edge">
<title>delete&#45;&gt;end</title>
<path fill="none" stroke="black" d="M365.65,-282.88C368.69,-271.64 372.79,-256.49 376.59,-242.48"/>
<polygon fill="black" stroke="black" points="379.91,-243.61 379.14,-233.04 373.15,-241.78 379.91,-243.61"/>
<text text-anchor="middle" x="392.75" y="-251.75" font-family="Helvetica,Arial,sans-serif" font-size="14.00">admin</text>
</g>
<!-- delete&#45;&gt;new -->
<g id="edge14" class="edge">
<title>delete&#45;&gt;new</title>
<path fill="none" stroke="black" d="M388.31,-310.69C432.2,-326.07 517.95,-362.46 562,-424.05 566.48,-430.31 569.19,-438.06 570.81,-445.57"/>
<polygon fill="black" stroke="black" points="567.35,-446.09 572.33,-455.44 574.27,-445.02 567.35,-446.09"/>
<text text-anchor="middle" x="564.75" y="-382.25" font-family="Helvetica,Arial,sans-serif" font-size="14.00">admin</text>
</g>
<!-- delete&#45;&gt;archived -->
<g id="edge12" class="edge">
<title>delete&#45;&gt;archived</title>
<path fill="none" stroke="black" d="M388.45,-295.8C422.13,-288.95 477.87,-271.94 503,-232.05 516.75,-210.22 511.16,-198.47 503,-174 497.83,-158.49 487.59,-143.67 477.63,-131.85"/>
<polygon fill="black" stroke="black" points="480.42,-129.72 471.16,-124.57 475.18,-134.37 480.42,-129.72"/>
<text text-anchor="middle" x="529.75" y="-197.22" font-family="Helvetica,Arial,sans-serif" font-size="14.00">admin</text>
</g>
<!-- delete&#45;&gt;assessing -->
<g id="edge13" class="edge">
<title>delete&#45;&gt;assessing</title>
<path fill="none" stroke="black" d="M333.75,-293.43C293.09,-283.53 221.15,-265.93 220,-265.05 183.42,-236.89 195.69,-212.36 170,-174 164.28,-165.46 158.92,-165.69 155.5,-156 141.95,-117.58 166.13,-87 196,-54 199.65,-49.96 203.88,-46.25 208.37,-42.88"/>
<polygon fill="black" stroke="black" points="210.28,-45.81 216.58,-37.28 206.34,-40.02 210.28,-45.81"/>
<text text-anchor="middle" x="174.75" y="-142.7" font-family="Helvetica,Arial,sans-serif" font-size="14.00">admin</text>
</g>
<!-- delete&#45;&gt;read -->
<g id="edge15" class="edge">
<title>delete&#45;&gt;read</title>
<path fill="none" stroke="black" d="M333.63,-312.36C322.85,-317.92 311.61,-325.97 305.5,-337.05 301.83,-343.71 301.97,-351.45 303.8,-358.84"/>
<polygon fill="black" stroke="black" points="300.46,-359.88 307.1,-368.14 307.06,-357.55 300.46,-359.88"/>
<text text-anchor="middle" x="323.75" y="-338.75" font-family="Helvetica,Arial,sans-serif" font-size="14.00">admin</text>
</g>
<!-- delete&#45;&gt;review -->
<g id="edge16" class="edge">
<title>delete&#45;&gt;review</title>
<path fill="none" stroke="black" d="M333.71,-296.75C298.78,-291.9 241.24,-281.59 228.5,-265.05 220.94,-255.23 223.88,-242.56 229.68,-231.3"/>
<polygon fill="black" stroke="black" points="232.65,-233.15 234.81,-222.78 226.65,-229.54 232.65,-233.15"/>
<text text-anchor="middle" x="247.75" y="-251.75" font-family="Helvetica,Arial,sans-serif" font-size="14.00">admin</text>
</g>
<!-- read&#45;&gt;new -->
<g id="edge20" class="edge">
<title>read&#45;&gt;new</title>
<path fill="none" stroke="black" d="M345.34,-396.42C369.77,-403.16 406.47,-413.62 438,-424.05 471.06,-434.97 508.11,-448.81 535.03,-459.16"/>
<polygon fill="black" stroke="black" points="533.54,-462.34 544.13,-462.68 536.06,-455.81 533.54,-462.34"/>
<text text-anchor="middle" x="518.38" y="-425.75" font-family="Helvetica,Arial,sans-serif" font-size="14.00">admin, editor</text>
</g>
<!-- read&#45;&gt;assessing -->
<g id="edge18" class="edge">
<title>read&#45;&gt;assessing</title>
<path fill="none" stroke="black" d="M290.61,-385.59C213.48,-380.76 0,-361.98 0,-302.05 0,-302.05 0,-302.05 0,-104 0,-61.2 130.93,-36.09 205.15,-25.3"/>
<polygon fill="black" stroke="black" points="205.64,-28.77 215.05,-23.9 204.66,-21.83 205.64,-28.77"/>
<text text-anchor="middle" x="16.88" y="-197.22" font-family="Helvetica,Arial,sans-serif" font-size="14.00">editor</text>
</g>
<!-- read&#45;&gt;delete -->
<g id="edge19" class="edge">
<title>read&#45;&gt;delete</title>
<path fill="none" stroke="black" d="M331.71,-369.85C335.68,-364.36 339.81,-358.13 343,-352.05 346.64,-345.1 349.85,-337.25 352.51,-329.87"/>
<polygon fill="black" stroke="black" points="355.75,-331.23 355.63,-320.64 349.11,-328.99 355.75,-331.23"/>
<text text-anchor="middle" x="374.5" y="-338.75" font-family="Helvetica,Arial,sans-serif" font-size="14.00">reviewer</text>
</g>
<!-- review&#45;&gt;new -->
<g id="edge24" class="edge">
<title>review&#45;&gt;new</title>
<path fill="none" stroke="black" d="M226.92,-221.44C192.69,-249.43 135.53,-305.99 165,-352.05 218.34,-435.42 274.47,-413.15 370,-439.05 426.23,-454.29 493.11,-464.31 534.31,-469.58"/>
<polygon fill="black" stroke="black" points="533.86,-473.05 544.22,-470.81 534.73,-466.1 533.86,-473.05"/>
<text text-anchor="middle" x="213" y="-338.75" font-family="Helvetica,Arial,sans-serif" font-size="14.00">admin, importer</text>
</g>
<!-- review&#45;&gt;archived -->
<g id="edge21" class="edge">
<title>review&#45;&gt;archived</title>
<path fill="none" stroke="black" d="M263.43,-184.74C275.09,-170.9 293.18,-152.04 313,-141 329.07,-132.05 372.91,-121.77 407.1,-114.68"/>
<polygon fill="black" stroke="black" points="407.69,-118.13 416.79,-112.7 406.29,-111.27 407.69,-118.13"/>
<text text-anchor="middle" x="338.5" y="-142.7" font-family="Helvetica,Arial,sans-serif" font-size="14.00">reviewer</text>
</g>
<!-- review&#45;&gt;assessing -->
<g id="edge22" class="edge">
<title>review&#45;&gt;assessing</title>
<path fill="none" stroke="black" d="M229.89,-184.63C206.95,-162.57 174.39,-123.03 189,-87 195.78,-70.28 208.87,-55.4 221.61,-43.86"/>
<polygon fill="black" stroke="black" points="223.83,-46.57 229.15,-37.4 219.28,-41.25 223.83,-46.57"/>
<text text-anchor="middle" x="237" y="-99.2" font-family="Helvetica,Arial,sans-serif" font-size="14.00">admin, reviewer</text>
</g>
<!-- review&#45;&gt;delete -->
<g id="edge23" class="edge">
<title>review&#45;&gt;delete</title>
<path fill="none" stroke="black" d="M257.82,-221.38C264.53,-234.71 275.29,-252.84 289,-265.05 298.86,-273.82 311.3,-280.9 323.07,-286.33"/>
<polygon fill="black" stroke="black" points="321.62,-289.52 332.19,-290.27 324.39,-283.09 321.62,-289.52"/>
<text text-anchor="middle" x="314.5" y="-251.75" font-family="Helvetica,Arial,sans-serif" font-size="14.00">reviewer</text>
</g>
<!-- review&#45;&gt;read -->
<g id="edge25" class="edge">
<title>review&#45;&gt;read</title>
<path fill="none" stroke="black" d="M233.1,-221.43C223.6,-233.39 214.63,-249.79 220,-265.05 233.65,-303.85 265.44,-339.43 289.13,-362.02"/>
<polygon fill="black" stroke="black" points="286.62,-364.47 296.33,-368.71 291.39,-359.34 286.62,-364.47"/>
<text text-anchor="middle" x="267.75" y="-295.25" font-family="Helvetica,Arial,sans-serif" font-size="14.00">admin</text>
</g>
</g>
</svg>
