<?xml version="1.0" encoding="UTF-8" standalone="no"?>
<!DOCTYPE svg PUBLIC "-//W3C//DTD SVG 1.1//EN"
 "http://www.w3.org/Graphics/SVG/1.1/DTD/svg11.dtd">
<!-- Generated by graphviz version 2.43.0 (0)
 -->
<!-- Title: workflow_transitions Pages: 1 -->
<svg width="830pt" height="618pt"
 viewBox="0.00 0.00 830.00 617.89" xmlns="http://www.w3.org/2000/svg" xmlns:xlink="http://www.w3.org/1999/xlink">
<g id="graph0" class="graph" transform="scale(1 1) rotate(0) translate(4 613.89)">
<title>workflow_transitions</title>
<polygon fill="white" stroke="transparent" points="-4,4 -4,-613.89 826,-613.89 826,4 -4,4"/>
<!-- start -->
<g id="node1" class="node">
<title>start</title>
<ellipse fill="none" stroke="black" cx="292" cy="-577.29" rx="28.68" ry="28.68"/>
<ellipse fill="none" stroke="black" cx="292" cy="-577.29" rx="32.7" ry="32.7"/>
<text text-anchor="middle" x="292" y="-573.59" font-family="Helvetica,Arial,sans-serif" font-size="14.00">start</text>
</g>
<!-- new -->
<g id="node3" class="node">
<title>new</title>
<polygon fill="none" stroke="black" points="319,-493.7 265,-493.7 265,-457.7 319,-457.7 319,-493.7"/>
<text text-anchor="middle" x="292" y="-472" font-family="Helvetica,Arial,sans-serif" font-size="14.00">new</text>
</g>
<!-- start&#45;&gt;new -->
<g id="edge1" class="edge">
<title>start&#45;&gt;new</title>
<path fill="none" stroke="black" d="M292,-544.51C292,-531.47 292,-516.54 292,-504.01"/>
<polygon fill="black" stroke="black" points="295.5,-503.72 292,-493.72 288.5,-503.72 295.5,-503.72"/>
<text text-anchor="middle" x="318" y="-515.5" font-family="Helvetica,Arial,sans-serif" font-size="14.00">importer</text>
</g>
<!-- end -->
<g id="node2" class="node">
<title>end</title>
<ellipse fill="none" stroke="black" cx="291" cy="-203.35" rx="25.22" ry="25.22"/>
<ellipse fill="none" stroke="black" cx="291" cy="-203.35" rx="29.2" ry="29.2"/>
<text text-anchor="middle" x="291" y="-199.65" font-family="Helvetica,Arial,sans-serif" font-size="14.00">end</text>
</g>
<!-- read -->
<g id="node7" class="node">
<title>read</title>
<polygon fill="none" stroke="black" points="262,-406.7 208,-406.7 208,-370.7 262,-370.7 262,-406.7"/>
<text text-anchor="middle" x="235" y="-385" font-family="Helvetica,Arial,sans-serif" font-size="14.00">read</text>
</g>
<!-- new&#45;&gt;read -->
<g id="edge16" class="edge">
<title>new&#45;&gt;read</title>
<path fill="none" stroke="black" d="M286.32,-457.68C282.53,-447.61 276.96,-434.87 270,-424.7 267.54,-421.1 264.69,-417.57 261.69,-414.2"/>
<polygon fill="black" stroke="black" points="263.99,-411.53 254.56,-406.71 258.92,-416.36 263.99,-411.53"/>
<text text-anchor="middle" x="295" y="-428.5" font-family="Helvetica,Arial,sans-serif" font-size="14.00">editor</text>
</g>
<!-- archived -->
<g id="node4" class="node">
<title>archived</title>
<polygon fill="none" stroke="black" points="241,-221.35 173,-221.35 173,-185.35 241,-185.35 241,-221.35"/>
<text text-anchor="middle" x="207" y="-199.65" font-family="Helvetica,Arial,sans-serif" font-size="14.00">archived</text>
</g>
<!-- archived&#45;&gt;new -->
<g id="edge4" class="edge">
<title>archived&#45;&gt;new</title>
<path fill="none" stroke="black" d="M189.77,-221.51C182.4,-229.72 174.29,-240.08 169,-250.7 136.11,-316.78 137.53,-324.52 148,-352.7 165.78,-400.55 182.81,-408.22 223,-439.7 232.73,-447.32 244.39,-453.98 255.32,-459.4"/>
<polygon fill="black" stroke="black" points="254.14,-462.71 264.68,-463.82 257.14,-456.38 254.14,-462.71"/>
<text text-anchor="middle" x="174" y="-341.5" font-family="Helvetica,Arial,sans-serif" font-size="14.00">importer</text>
</g>
<!-- assessing -->
<g id="node5" class="node">
<title>assessing</title>
<polygon fill="none" stroke="black" points="279.5,-36 202.5,-36 202.5,0 279.5,0 279.5,-36"/>
<text text-anchor="middle" x="241" y="-14.3" font-family="Helvetica,Arial,sans-serif" font-size="14.00">assessing</text>
</g>
<!-- archived&#45;&gt;assessing -->
<g id="edge2" class="edge">
<title>archived&#45;&gt;assessing</title>
<path fill="none" stroke="black" d="M208.08,-185.35C209,-172.99 210.57,-155.89 213,-141 218.38,-107.97 227.42,-70.53 233.77,-45.94"/>
<polygon fill="black" stroke="black" points="237.16,-46.8 236.31,-36.24 230.39,-45.03 237.16,-46.8"/>
<text text-anchor="middle" x="242" y="-101.3" font-family="Helvetica,Arial,sans-serif" font-size="14.00">admin</text>
</g>
<!-- delete -->
<g id="node6" class="node">
<title>delete</title>
<polygon fill="none" stroke="black" points="323,-319.7 269,-319.7 269,-283.7 323,-283.7 323,-319.7"/>
<text text-anchor="middle" x="296" y="-298" font-family="Helvetica,Arial,sans-serif" font-size="14.00">delete</text>
</g>
<!-- archived&#45;&gt;delete -->
<g id="edge3" class="edge">
<title>archived&#45;&gt;delete</title>
<path fill="none" stroke="black" d="M212.02,-221.57C216.58,-234.85 224.38,-253.02 236,-265.7 242.71,-273.02 251.32,-279.25 259.91,-284.34"/>
<polygon fill="black" stroke="black" points="258.32,-287.46 268.77,-289.22 261.7,-281.33 258.32,-287.46"/>
<text text-anchor="middle" x="282" y="-254.5" font-family="Helvetica,Arial,sans-serif" font-size="14.00">editor, reviewer</text>
</g>
<!-- archived&#45;&gt;read -->
<g id="edge5" class="edge">
<title>archived&#45;&gt;read</title>
<path fill="none" stroke="black" d="M189.55,-221.6C179.77,-233.37 170.22,-249.69 174,-265.7 182.39,-301.25 202.83,-338.27 217.74,-362.06"/>
<polygon fill="black" stroke="black" points="214.81,-363.97 223.15,-370.51 220.7,-360.2 214.81,-363.97"/>
<text text-anchor="middle" x="212" y="-298" font-family="Helvetica,Arial,sans-serif" font-size="14.00">admin</text>
</g>
<!-- review -->
<g id="node8" class="node">
<title>review</title>
<polygon fill="none" stroke="black" points="382,-123 326,-123 326,-87 382,-87 382,-123"/>
<text text-anchor="middle" x="354" y="-101.3" font-family="Helvetica,Arial,sans-serif" font-size="14.00">review</text>
</g>
<!-- archived&#45;&gt;review -->
<g id="edge6" class="edge">
<title>archived&#45;&gt;review</title>
<path fill="none" stroke="black" d="M234.66,-185.14C240.69,-181.44 247.04,-177.56 253,-174 266.67,-165.82 270.61,-164.64 284,-156 296.92,-147.66 310.78,-137.93 322.73,-129.29"/>
<polygon fill="black" stroke="black" points="325.03,-131.95 331.05,-123.23 320.9,-126.29 325.03,-131.95"/>
<text text-anchor="middle" x="324" y="-144.8" font-family="Helvetica,Arial,sans-serif" font-size="14.00">admin</text>
</g>
<!-- assessing&#45;&gt;new -->
<g id="edge8" class="edge">
<title>assessing&#45;&gt;new</title>
<path fill="none" stroke="black" d="M279.78,-21.65C395.44,-30.08 730,-58.38 730,-104 730,-389.7 730,-389.7 730,-389.7 730,-471.04 435.16,-476.12 329.29,-475.33"/>
<polygon fill="black" stroke="black" points="329.1,-471.82 319.07,-475.23 329.03,-478.82 329.1,-471.82"/>
<text text-anchor="middle" x="776" y="-254.5" font-family="Helvetica,Arial,sans-serif" font-size="14.00">editor, importer</text>
</g>
<!-- assessing&#45;&gt;delete -->
<g id="edge7" class="edge">
<title>assessing&#45;&gt;delete</title>
<path fill="none" stroke="black" d="M279.6,-23.09C342.38,-32.02 465.19,-59.52 521,-141 548.74,-181.51 531.11,-201.69 534,-250.7 534.39,-257.35 538.36,-260.65 534,-265.7 508.57,-295.14 394.09,-300.26 333.65,-300.87"/>
<polygon fill="black" stroke="black" points="333.36,-297.37 323.38,-300.94 333.4,-304.37 333.36,-297.37"/>
<text text-anchor="middle" x="575" y="-144.8" font-family="Helvetica,Arial,sans-serif" font-size="14.00">editor, reviewer</text>
</g>
<!-- assessing&#45;&gt;read -->
<g id="edge9" class="edge">
<title>assessing&#45;&gt;read</title>
<path fill="none" stroke="black" d="M219.63,-36.25C213.15,-41.74 206.13,-47.96 200,-54 154.53,-98.83 137.47,-112.31 121,-174 98.61,-257.9 142.95,-287.23 200,-352.7 203,-356.14 206.27,-359.67 209.56,-363.09"/>
<polygon fill="black" stroke="black" points="207.2,-365.68 216.71,-370.35 212.18,-360.76 207.2,-365.68"/>
<text text-anchor="middle" x="138" y="-199.65" font-family="Helvetica,Arial,sans-serif" font-size="14.00">editor</text>
</g>
<!-- assessing&#45;&gt;review -->
<g id="edge10" class="edge">
<title>assessing&#45;&gt;review</title>
<path fill="none" stroke="black" d="M275.15,-36.17C284.49,-41.43 294.4,-47.54 303,-54 312.96,-61.49 322.97,-70.81 331.45,-79.37"/>
<polygon fill="black" stroke="black" points="328.99,-81.87 338.46,-86.63 334.03,-77 328.99,-81.87"/>
<text text-anchor="middle" x="336" y="-57.8" font-family="Helvetica,Arial,sans-serif" font-size="14.00">editor</text>
</g>
<!-- delete&#45;&gt;end -->
<g id="edge11" class="edge">
<title>delete&#45;&gt;end</title>
<path fill="none" stroke="black" d="M319.54,-283.52C328.92,-274.44 336.55,-262.7 332,-250.7 329.28,-243.51 324.88,-236.73 319.95,-230.68"/>
<polygon fill="black" stroke="black" points="322.29,-228.04 313.01,-222.91 317.07,-232.7 322.29,-228.04"/>
<text text-anchor="middle" x="352" y="-254.5" font-family="Helvetica,Arial,sans-serif" font-size="14.00">admin</text>
</g>
<!-- delete&#45;&gt;archived -->
<g id="edge12" class="edge">
<title>delete&#45;&gt;archived</title>
<path fill="none" stroke="black" d="M268.97,-300.81C242.26,-299.29 202.62,-292.31 183,-265.7 175.16,-255.06 179.29,-241.53 186.17,-229.88"/>
<polygon fill="black" stroke="black" points="189.18,-231.68 191.83,-221.42 183.36,-227.79 189.18,-231.68"/>
<text text-anchor="middle" x="202" y="-254.5" font-family="Helvetica,Arial,sans-serif" font-size="14.00">admin</text>
</g>
<!-- delete&#45;&gt;assessing -->
<g id="edge13" class="edge">
<title>delete&#45;&gt;assessing</title>
<path fill="none" stroke="black" d="M268.87,-293.08C233.19,-283.05 174.87,-266.55 174,-265.7 163.08,-254.94 166.25,-247.86 164,-232.7 158.02,-192.34 154.78,-179.59 168,-141 180.39,-104.81 204.53,-67.73 221.65,-44.1"/>
<polygon fill="black" stroke="black" points="224.49,-46.15 227.61,-36.03 218.86,-41.99 224.49,-46.15"/>
<text text-anchor="middle" x="187" y="-144.8" font-family="Helvetica,Arial,sans-serif" font-size="14.00">admin</text>
</g>
<!-- delete&#45;&gt;read -->
<g id="edge14" class="edge">
<title>delete&#45;&gt;read</title>
<path fill="none" stroke="black" d="M268.78,-311.55C256.52,-317.03 243.21,-325.43 236,-337.7 232.07,-344.39 230.76,-352.5 230.72,-360.23"/>
<polygon fill="black" stroke="black" points="227.24,-360.58 231.33,-370.35 234.22,-360.16 227.24,-360.58"/>
<text text-anchor="middle" x="255" y="-341.5" font-family="Helvetica,Arial,sans-serif" font-size="14.00">admin</text>
</g>
<!-- delete&#45;&gt;review -->
<g id="edge15" class="edge">
<title>delete&#45;&gt;review</title>
<path fill="none" stroke="black" d="M323.18,-296.94C356.28,-291.75 409.22,-281.23 421,-265.7 452.96,-223.56 409.37,-163.93 378.96,-130.74"/>
<polygon fill="black" stroke="black" points="381.35,-128.18 371.95,-123.29 376.25,-132.97 381.35,-128.18"/>
<text text-anchor="middle" x="451" y="-199.65" font-family="Helvetica,Arial,sans-serif" font-size="14.00">admin</text>
</g>
<!-- read&#45;&gt;new -->
<g id="edge19" class="edge">
<title>read&#45;&gt;new</title>
<path fill="none" stroke="black" d="M229.44,-406.99C227.23,-417.15 226.37,-429.89 232,-439.7 237.42,-449.13 246.46,-456.26 255.91,-461.53"/>
<polygon fill="black" stroke="black" points="254.47,-464.73 264.98,-466.04 257.58,-458.46 254.47,-464.73"/>
<text text-anchor="middle" x="249" y="-428.5" font-family="Helvetica,Arial,sans-serif" font-size="14.00">editor</text>
</g>
<!-- read&#45;&gt;assessing -->
<g id="edge17" class="edge">
<title>read&#45;&gt;assessing</title>
<path fill="none" stroke="black" d="M207.58,-383.72C145.59,-373.97 0,-346.41 0,-302.7 0,-302.7 0,-302.7 0,-104 0,-63.62 121.87,-37.68 192.28,-26.07"/>
<polygon fill="black" stroke="black" points="192.96,-29.51 202.28,-24.46 191.85,-22.6 192.96,-29.51"/>
<text text-anchor="middle" x="17" y="-199.65" font-family="Helvetica,Arial,sans-serif" font-size="14.00">editor</text>
</g>
<!-- read&#45;&gt;delete -->
<g id="edge18" class="edge">
<title>read&#45;&gt;delete</title>
<path fill="none" stroke="black" d="M257.27,-370.64C263.23,-365.34 269.3,-359.18 274,-352.7 279.14,-345.6 283.44,-337.11 286.83,-329.16"/>
<polygon fill="black" stroke="black" points="290.09,-330.44 290.51,-319.85 283.58,-327.86 290.09,-330.44"/>
<text text-anchor="middle" x="328" y="-341.5" font-family="Helvetica,Arial,sans-serif" font-size="14.00">editor, reviewer</text>
</g>
<!-- review&#45;&gt;new -->
<g id="edge23" class="edge">
<title>review&#45;&gt;new</title>
<path fill="none" stroke="black" d="M382.3,-106.14C443.87,-107 587.51,-112.13 625,-141 648.33,-158.96 650,-172.91 650,-202.35 650,-389.7 650,-389.7 650,-389.7 650,-455.06 421.22,-470.24 329.44,-473.7"/>
<polygon fill="black" stroke="black" points="329.07,-470.21 319.2,-474.06 329.32,-477.2 329.07,-470.21"/>
<text text-anchor="middle" x="676" y="-298" font-family="Helvetica,Arial,sans-serif" font-size="14.00">importer</text>
</g>
<!-- review&#45;&gt;archived -->
<g id="edge20" class="edge">
<title>review&#45;&gt;archived</title>
<path fill="none" stroke="black" d="M325.81,-106.52C297.57,-108.55 254.6,-115.93 228,-141 218.56,-149.9 213.36,-163.22 210.5,-175.17"/>
<polygon fill="black" stroke="black" points="207.03,-174.7 208.54,-185.19 213.9,-176.04 207.03,-174.7"/>
<text text-anchor="middle" x="254" y="-144.8" font-family="Helvetica,Arial,sans-serif" font-size="14.00">reviewer</text>
</g>
<!-- review&#45;&gt;assessing -->
<g id="edge21" class="edge">
<title>review&#45;&gt;assessing</title>
<path fill="none" stroke="black" d="M325.67,-102.84C300.93,-100.21 266.09,-92.27 247,-69 241.83,-62.7 239.63,-54.37 238.92,-46.31"/>
<polygon fill="black" stroke="black" points="242.42,-46 238.73,-36.07 235.42,-46.14 242.42,-46"/>
<text text-anchor="middle" x="273" y="-57.8" font-family="Helvetica,Arial,sans-serif" font-size="14.00">reviewer</text>
</g>
<!-- review&#45;&gt;delete -->
<g id="edge22" class="edge">
<title>review&#45;&gt;delete</title>
<path fill="none" stroke="black" d="M350.51,-123.24C346.26,-148.44 341.41,-196.29 357,-232.7 361.45,-243.1 370.67,-240.24 375,-250.7 377.55,-256.85 378.64,-260.11 375,-265.7 365.67,-280.03 348.98,-288.54 333.34,-293.57"/>
<polygon fill="black" stroke="black" points="331.97,-290.32 323.29,-296.4 333.87,-297.06 331.97,-290.32"/>
<text text-anchor="middle" x="383" y="-199.65" font-family="Helvetica,Arial,sans-serif" font-size="14.00">reviewer</text>
</g>
<!-- review&#45;&gt;read -->
<g id="edge24" class="edge">
<title>review&#45;&gt;read</title>
<path fill="none" stroke="black" d="M382.22,-113.05C411.07,-121.93 454.35,-140.28 474,-174 487.13,-196.54 482.63,-208.08 474,-232.7 451.39,-297.15 435.57,-315.95 378,-352.7 345.91,-373.18 302.76,-381.67 272.27,-385.2"/>
<polygon fill="black" stroke="black" points="271.65,-381.74 262.06,-386.25 272.37,-388.71 271.65,-381.74"/>
<text text-anchor="middle" x="493" y="-254.5" font-family="Helvetica,Arial,sans-serif" font-size="14.00">reviewer</text>
</g>
</g>
</svg>
