<?xml version="1.0" encoding="UTF-8" standalone="no"?>
<!DOCTYPE svg PUBLIC "-//W3C//DTD SVG 1.1//EN"
 "http://www.w3.org/Graphics/SVG/1.1/DTD/svg11.dtd">
<!-- Generated by graphviz version 12.2.1 (20241206.2353)
 -->
<!-- Title: workflow_transitions Pages: 1 -->
<svg width="705pt" height="615pt"
 viewBox="0.00 0.00 705.25 614.97" xmlns="http://www.w3.org/2000/svg" xmlns:xlink="http://www.w3.org/1999/xlink">
<g id="graph0" class="graph" transform="scale(1 1) rotate(0) translate(4 610.97)">
<title>workflow_transitions</title>
<polygon fill="white" stroke="none" points="-4,4 -4,-610.97 701.25,-610.97 701.25,4 -4,4"/>
<!-- start -->
<g id="node1" class="node">
<title>start</title>
<ellipse fill="none" stroke="black" cx="297" cy="-575.51" rx="27.46" ry="27.46"/>
<ellipse fill="none" stroke="black" cx="297" cy="-575.51" rx="31.46" ry="31.46"/>
<text text-anchor="middle" x="297" y="-569.71" font-family="Helvetica,Arial,sans-serif" font-size="14.00">start</text>
</g>
<!-- new -->
<g id="node7" class="node">
<title>new</title>
<ellipse fill="none" stroke="black" cx="297" cy="-475.05" rx="27" ry="18"/>
<text text-anchor="middle" x="297" y="-469.25" font-family="Helvetica,Arial,sans-serif" font-size="14.00">new</text>
</g>
<!-- start&#45;&gt;new -->
<g id="edge1" class="edge">
<title>start&#45;&gt;new</title>
<path fill="none" stroke="black" d="M297,-543.62C297,-531.19 297,-516.93 297,-504.72"/>
<polygon fill="black" stroke="black" points="300.5,-504.86 297,-494.86 293.5,-504.86 300.5,-504.86"/>
<text text-anchor="middle" x="322.12" y="-512.75" font-family="Helvetica,Arial,sans-serif" font-size="14.00">importer</text>
</g>
<!-- read -->
<g id="node2" class="node">
<title>read</title>
<polygon fill="none" stroke="black" points="267,-406.05 213,-406.05 213,-370.05 267,-370.05 267,-406.05"/>
<text text-anchor="middle" x="240" y="-382.25" font-family="Helvetica,Arial,sans-serif" font-size="14.00">read</text>
</g>
<!-- assessing -->
<g id="node3" class="node">
<title>assessing</title>
<polygon fill="none" stroke="black" points="426,-319.05 350,-319.05 350,-283.05 426,-283.05 426,-319.05"/>
<text text-anchor="middle" x="388" y="-295.25" font-family="Helvetica,Arial,sans-serif" font-size="14.00">assessing</text>
</g>
<!-- read&#45;&gt;assessing -->
<g id="edge17" class="edge">
<title>read&#45;&gt;assessing</title>
<path fill="none" stroke="black" d="M267.44,-374.73C281.06,-368.36 297.62,-360.22 312,-352.05 320.21,-347.38 337.32,-336.17 353.23,-325.54"/>
<polygon fill="black" stroke="black" points="354.77,-328.72 361.13,-320.25 350.87,-322.91 354.77,-328.72"/>
<text text-anchor="middle" x="351.07" y="-338.75" font-family="Helvetica,Arial,sans-serif" font-size="14.00">editor</text>
</g>
<!-- delete -->
<g id="node6" class="node">
<title>delete</title>
<polygon fill="none" stroke="black" points="225,-232.05 171,-232.05 171,-196.05 225,-196.05 225,-232.05"/>
<text text-anchor="middle" x="198" y="-208.25" font-family="Helvetica,Arial,sans-serif" font-size="14.00">delete</text>
</g>
<!-- read&#45;&gt;delete -->
<g id="edge18" class="edge">
<title>read&#45;&gt;delete</title>
<path fill="none" stroke="black" d="M236.94,-369.6C233.14,-348.83 226.17,-313.15 218,-283.05 215.79,-274.91 214.47,-273.11 212,-265.05 209.84,-258 207.64,-250.36 205.63,-243.22"/>
<polygon fill="black" stroke="black" points="209.03,-242.39 202.99,-233.69 202.29,-244.26 209.03,-242.39"/>
<text text-anchor="middle" x="272.61" y="-295.25" font-family="Helvetica,Arial,sans-serif" font-size="14.00">editor, reviewer</text>
</g>
<!-- read&#45;&gt;new -->
<g id="edge19" class="edge">
<title>read&#45;&gt;new</title>
<path fill="none" stroke="black" d="M259.92,-406.42C265.26,-411.72 270.73,-417.8 275,-424.05 279.68,-430.88 283.72,-438.87 287.03,-446.44"/>
<polygon fill="black" stroke="black" points="283.75,-447.67 290.75,-455.62 290.24,-445.04 283.75,-447.67"/>
<text text-anchor="middle" x="300.11" y="-425.75" font-family="Helvetica,Arial,sans-serif" font-size="14.00">editor</text>
</g>
<!-- assessing&#45;&gt;read -->
<g id="edge9" class="edge">
<title>assessing&#45;&gt;read</title>
<path fill="none" stroke="black" d="M349.68,-314.64C345.07,-316.13 340.43,-317.63 336,-319.05 310.39,-327.22 300.29,-321.65 278.25,-337.05 269.4,-343.23 261.68,-352.09 255.54,-360.64"/>
<polygon fill="black" stroke="black" points="252.78,-358.48 250.14,-368.74 258.6,-362.36 252.78,-358.48"/>
<text text-anchor="middle" x="295.12" y="-338.75" font-family="Helvetica,Arial,sans-serif" font-size="14.00">editor</text>
</g>
<!-- review -->
<g id="node4" class="node">
<title>review</title>
<polygon fill="none" stroke="black" points="403.5,-36 348.5,-36 348.5,0 403.5,0 403.5,-36"/>
<text text-anchor="middle" x="376" y="-12.2" font-family="Helvetica,Arial,sans-serif" font-size="14.00">review</text>
</g>
<!-- assessing&#45;&gt;review -->
<g id="edge10" class="edge">
<title>assessing&#45;&gt;review</title>
<path fill="none" stroke="black" d="M416,-282.67C432.46,-270.7 451.81,-253.17 461,-232.05 467.38,-217.37 462.24,-212 461,-196.05 457.21,-147.14 466.22,-130.73 444,-87 435.56,-70.39 421.57,-55.35 408.46,-43.65"/>
<polygon fill="black" stroke="black" points="411.07,-41.28 401.19,-37.45 406.53,-46.61 411.07,-41.28"/>
<text text-anchor="middle" x="476.92" y="-164.75" font-family="Helvetica,Arial,sans-serif" font-size="14.00">editor</text>
</g>
<!-- assessing&#45;&gt;delete -->
<g id="edge7" class="edge">
<title>assessing&#45;&gt;delete</title>
<path fill="none" stroke="black" d="M349.91,-287.05C328.13,-279.43 303.13,-270.29 292.75,-265.05 281.94,-259.59 280.52,-256.04 270,-250.05 259.11,-243.84 246.96,-237.67 235.78,-232.27"/>
<polygon fill="black" stroke="black" points="237.34,-229.14 226.81,-228.01 234.34,-235.46 237.34,-229.14"/>
<text text-anchor="middle" x="338.88" y="-251.75" font-family="Helvetica,Arial,sans-serif" font-size="14.00">editor, reviewer</text>
</g>
<!-- assessing&#45;&gt;new -->
<g id="edge8" class="edge">
<title>assessing&#45;&gt;new</title>
<path fill="none" stroke="black" d="M382.53,-319.45C379.27,-329.2 374.84,-341.48 370,-352.05 351.53,-392.4 344.46,-401.38 321,-439.05 319.01,-442.24 316.87,-445.54 314.7,-448.8"/>
<polygon fill="black" stroke="black" points="311.88,-446.72 309.14,-456.96 317.66,-450.66 311.88,-446.72"/>
<text text-anchor="middle" x="386.2" y="-382.25" font-family="Helvetica,Arial,sans-serif" font-size="14.00">importer</text>
</g>
<!-- review&#45;&gt;read -->
<g id="edge24" class="edge">
<title>review&#45;&gt;read</title>
<path fill="none" stroke="black" d="M348.13,-20C273.36,-23.36 71.38,-36.97 33,-87 -47.58,-192.05 63.24,-272.39 169,-352.05 179.07,-359.63 191.03,-366.27 202.24,-371.67"/>
<polygon fill="black" stroke="black" points="200.75,-374.83 211.3,-375.83 203.67,-368.47 200.75,-374.83"/>
<text text-anchor="middle" x="57.72" y="-208.25" font-family="Helvetica,Arial,sans-serif" font-size="14.00">reviewer</text>
</g>
<!-- review&#45;&gt;assessing -->
<g id="edge21" class="edge">
<title>review&#45;&gt;assessing</title>
<path fill="none" stroke="black" d="M403.69,-31.07C415.57,-37 429.17,-44.84 440,-54 481.92,-89.45 487.14,-109.24 498,-163.05 507.63,-210.78 493.43,-231.64 458,-265.05 451.61,-271.08 443.97,-276.29 436.14,-280.72"/>
<polygon fill="black" stroke="black" points="434.77,-277.49 427.52,-285.22 438.01,-283.7 434.77,-277.49"/>
<text text-anchor="middle" x="546.41" y="-164.75" font-family="Helvetica,Arial,sans-serif" font-size="14.00">reviewer, editor</text>
</g>
<!-- archived -->
<g id="node5" class="node">
<title>archived</title>
<polygon fill="none" stroke="black" points="272.5,-134.02 205.5,-134.02 205.5,-98.02 272.5,-98.02 272.5,-134.02"/>
<text text-anchor="middle" x="239" y="-110.22" font-family="Helvetica,Arial,sans-serif" font-size="14.00">archived</text>
</g>
<!-- review&#45;&gt;archived -->
<g id="edge20" class="edge">
<title>review&#45;&gt;archived</title>
<path fill="none" stroke="black" d="M359.03,-36.28C348.58,-46.45 334.61,-59.19 321,-69 309.09,-77.59 295.42,-85.82 282.71,-92.89"/>
<polygon fill="black" stroke="black" points="281.21,-89.72 274.09,-97.57 284.55,-95.87 281.21,-89.72"/>
<text text-anchor="middle" x="364.08" y="-55.7" font-family="Helvetica,Arial,sans-serif" font-size="14.00">reviewer</text>
</g>
<!-- review&#45;&gt;delete -->
<g id="edge22" class="edge">
<title>review&#45;&gt;delete</title>
<path fill="none" stroke="black" d="M387.84,-36.37C392.91,-45.89 397.04,-57.97 394,-69 379.02,-123.4 374.01,-144.03 329,-178.05 302.3,-198.23 264.84,-206.79 236.82,-210.41"/>
<polygon fill="black" stroke="black" points="236.5,-206.92 226.95,-211.51 237.28,-213.88 236.5,-206.92"/>
<text text-anchor="middle" x="414.36" y="-110.22" font-family="Helvetica,Arial,sans-serif" font-size="14.00">reviewer</text>
</g>
<!-- review&#45;&gt;new -->
<g id="edge23" class="edge">
<title>review&#45;&gt;new</title>
<path fill="none" stroke="black" d="M403.98,-22.82C473.22,-33.06 647,-63.86 647,-115.02 647,-389.05 647,-389.05 647,-389.05 647,-452.55 426.64,-468.79 335.62,-472.79"/>
<polygon fill="black" stroke="black" points="335.53,-469.29 325.68,-473.2 335.82,-476.29 335.53,-469.29"/>
<text text-anchor="middle" x="672.12" y="-251.75" font-family="Helvetica,Arial,sans-serif" font-size="14.00">importer</text>
</g>
<!-- archived&#45;&gt;read -->
<g id="edge5" class="edge">
<title>archived&#45;&gt;read</title>
<path fill="none" stroke="black" d="M216.03,-134.41C205.97,-142.56 194.35,-152.74 185,-163.05 151.4,-200.08 124.92,-216.65 137.5,-265.05 148.64,-307.89 155.76,-319.72 186,-352.05 190.96,-357.35 196.88,-362.21 202.95,-366.52"/>
<polygon fill="black" stroke="black" points="200.97,-369.4 211.24,-371.98 204.82,-363.56 200.97,-369.4"/>
<text text-anchor="middle" x="156.25" y="-251.75" font-family="Helvetica,Arial,sans-serif" font-size="14.00">admin</text>
</g>
<!-- archived&#45;&gt;assessing -->
<g id="edge2" class="edge">
<title>archived&#45;&gt;assessing</title>
<path fill="none" stroke="black" d="M272.81,-129.28C290.9,-137 312.74,-148.32 329,-163.05 363.09,-193.91 370.71,-206.34 385,-250.05 387.22,-256.82 388.32,-264.39 388.8,-271.54"/>
<polygon fill="black" stroke="black" points="385.3,-271.56 389.05,-281.47 392.29,-271.38 385.3,-271.56"/>
<text text-anchor="middle" x="418.07" y="-208.25" font-family="Helvetica,Arial,sans-serif" font-size="14.00">admin, editor</text>
</g>
<!-- archived&#45;&gt;review -->
<g id="edge6" class="edge">
<title>archived&#45;&gt;review</title>
<path fill="none" stroke="black" d="M206.55,-97.73C188.16,-85.69 171.11,-69.14 183.75,-54 202.87,-31.09 286.48,-23.14 336.93,-20.41"/>
<polygon fill="black" stroke="black" points="337.04,-23.91 346.86,-19.92 336.7,-16.91 337.04,-23.91"/>
<text text-anchor="middle" x="252.38" y="-55.7" font-family="Helvetica,Arial,sans-serif" font-size="14.00">admin, editor, reviewer</text>
</g>
<!-- archived&#45;&gt;delete -->
<g id="edge3" class="edge">
<title>archived&#45;&gt;delete</title>
<path fill="none" stroke="black" d="M214.2,-134.39C205.38,-142.05 196.47,-151.86 191.75,-163.05 188.93,-169.74 188.59,-177.34 189.43,-184.57"/>
<polygon fill="black" stroke="black" points="185.97,-185.15 191.32,-194.3 192.85,-183.81 185.97,-185.15"/>
<text text-anchor="middle" x="237.88" y="-164.75" font-family="Helvetica,Arial,sans-serif" font-size="14.00">editor, reviewer</text>
</g>
<!-- archived&#45;&gt;new -->
<g id="edge4" class="edge">
<title>archived&#45;&gt;new</title>
<path fill="none" stroke="black" d="M218.15,-134.43C212.8,-138.32 206.88,-142.15 201,-145.05 200.43,-145.33 24.47,-195.62 24,-196.05 2.58,-215.48 0,-227.62 0,-256.55 0,-389.05 0,-389.05 0,-389.05 0,-442.27 178.54,-464.06 258.77,-471.16"/>
<polygon fill="black" stroke="black" points="258.09,-474.62 268.35,-471.98 258.68,-467.64 258.09,-474.62"/>
<text text-anchor="middle" x="25.12" y="-295.25" font-family="Helvetica,Arial,sans-serif" font-size="14.00">importer</text>
</g>
<!-- delete&#45;&gt;read -->
<g id="edge14" class="edge">
<title>delete&#45;&gt;read</title>
<path fill="none" stroke="black" d="M189.7,-232.51C180.86,-253.61 169.55,-289.91 180.5,-319.05 186.58,-335.23 198.46,-350.09 210.01,-361.76"/>
<polygon fill="black" stroke="black" points="207.54,-364.24 217.19,-368.62 212.38,-359.18 207.54,-364.24"/>
<text text-anchor="middle" x="199.25" y="-295.25" font-family="Helvetica,Arial,sans-serif" font-size="14.00">admin</text>
</g>
<!-- delete&#45;&gt;assessing -->
<g id="edge13" class="edge">
<title>delete&#45;&gt;assessing</title>
<path fill="none" stroke="black" d="M204.06,-232.11C208.92,-243.27 216.88,-257.19 228.5,-265.05 268.63,-292.18 288.96,-271.49 336,-283.05 336.83,-283.25 337.67,-283.46 338.51,-283.68"/>
<polygon fill="black" stroke="black" points="337.54,-287.04 348.11,-286.36 339.42,-280.3 337.54,-287.04"/>
<text text-anchor="middle" x="247.25" y="-251.75" font-family="Helvetica,Arial,sans-serif" font-size="14.00">admin</text>
</g>
<!-- delete&#45;&gt;review -->
<g id="edge15" class="edge">
<title>delete&#45;&gt;review</title>
<path fill="none" stroke="black" d="M184.82,-195.68C175.72,-182.56 164.41,-163.67 159.5,-145.05 149.04,-105.35 142.37,-78.91 175,-54 199.81,-35.06 285.75,-25.61 336.87,-21.56"/>
<polygon fill="black" stroke="black" points="336.92,-25.06 346.63,-20.82 336.4,-18.08 336.92,-25.06"/>
<text text-anchor="middle" x="178.25" y="-110.22" font-family="Helvetica,Arial,sans-serif" font-size="14.00">admin</text>
</g>
<!-- delete&#45;&gt;archived -->
<g id="edge12" class="edge">
<title>delete&#45;&gt;archived</title>
<path fill="none" stroke="black" d="M225.13,-209.95C245.1,-206.09 270.95,-197.44 284,-178.05 292.16,-165.92 284.77,-152.83 273.79,-141.89"/>
<polygon fill="black" stroke="black" points="276.26,-139.4 266.46,-135.37 271.6,-144.63 276.26,-139.4"/>
<text text-anchor="middle" x="306.2" y="-164.75" font-family="Helvetica,Arial,sans-serif" font-size="14.00">admin</text>
</g>
<!-- end -->
<g id="node8" class="node">
<title>end</title>
<ellipse fill="none" stroke="black" cx="71" cy="-116.02" rx="25.02" ry="25.02"/>
<ellipse fill="none" stroke="black" cx="71" cy="-116.02" rx="29.02" ry="29.02"/>
<text text-anchor="middle" x="71" y="-110.22" font-family="Helvetica,Arial,sans-serif" font-size="14.00">end</text>
</g>
<!-- delete&#45;&gt;end -->
<g id="edge11" class="edge">
<title>delete&#45;&gt;end</title>
<path fill="none" stroke="black" d="M170.92,-209.49C149.01,-205.33 118.6,-196.5 98.5,-178.05 91.7,-171.8 86.47,-163.55 82.49,-155.15"/>
<polygon fill="black" stroke="black" points="85.75,-153.85 78.68,-145.96 79.28,-156.54 85.75,-153.85"/>
<text text-anchor="middle" x="117.25" y="-164.75" font-family="Helvetica,Arial,sans-serif" font-size="14.00">admin</text>
</g>
<!-- new&#45;&gt;read -->
<g id="edge16" class="edge">
<title>new&#45;&gt;read</title>
<path fill="none" stroke="black" d="M273.41,-465.55C261.56,-459.96 248.26,-451.36 241.25,-439.05 237.63,-432.68 236.26,-425.09 236.04,-417.77"/>
<polygon fill="black" stroke="black" points="239.54,-417.99 236.48,-407.84 232.55,-417.68 239.54,-417.99"/>
<text text-anchor="middle" x="258.12" y="-425.75" font-family="Helvetica,Arial,sans-serif" font-size="14.00">editor</text>
</g>
</g>
</svg>
