<?xml version="1.0" encoding="UTF-8" standalone="no"?>
<!DOCTYPE svg PUBLIC "-//W3C//DTD SVG 1.1//EN"
 "http://www.w3.org/Graphics/SVG/1.1/DTD/svg11.dtd">
<!-- Generated by graphviz version 11.0.0 (0)
 -->
<!-- Title: workflow_transitions Pages: 1 -->
<svg width="881pt" height="616pt"
 viewBox="0.00 0.00 880.50 615.94" xmlns="http://www.w3.org/2000/svg" xmlns:xlink="http://www.w3.org/1999/xlink">
<g id="graph0" class="graph" transform="scale(1 1) rotate(0) translate(4 611.94)">
<title>workflow_transitions</title>
<polygon fill="white" stroke="none" points="-4,4 -4,-611.94 876.5,-611.94 876.5,4 -4,4"/>
<!-- start -->
<g id="node1" class="node">
<title>start</title>
<ellipse fill="none" stroke="black" cx="576" cy="-575.99" rx="27.95" ry="27.95"/>
<ellipse fill="none" stroke="black" cx="576" cy="-575.99" rx="31.95" ry="31.95"/>
<text text-anchor="middle" x="576" y="-570.19" font-family="Helvetica,Arial,sans-serif" font-size="14.00">start</text>
</g>
<!-- new -->
<g id="node3" class="node">
<title>new</title>
<polygon fill="none" stroke="black" points="603,-493.05 549,-493.05 549,-457.05 603,-457.05 603,-493.05"/>
<text text-anchor="middle" x="576" y="-469.25" font-family="Helvetica,Arial,sans-serif" font-size="14.00">new</text>
</g>
<!-- start&#45;&gt;new -->
<g id="edge1" class="edge">
<title>start&#45;&gt;new</title>
<path fill="none" stroke="black" d="M576,-543.69C576,-531.2 576,-516.92 576,-504.72"/>
<polygon fill="black" stroke="black" points="579.5,-504.85 576,-494.85 572.5,-504.85 579.5,-504.85"/>
<text text-anchor="middle" x="601.5" y="-512.75" font-family="Helvetica,Arial,sans-serif" font-size="14.00">importer</text>
</g>
<!-- end -->
<g id="node2" class="node">
<title>end</title>
<ellipse fill="none" stroke="black" cx="360" cy="-203.02" rx="25.02" ry="25.02"/>
<ellipse fill="none" stroke="black" cx="360" cy="-203.02" rx="29.02" ry="29.02"/>
<text text-anchor="middle" x="360" y="-197.22" font-family="Helvetica,Arial,sans-serif" font-size="14.00">end</text>
</g>
<!-- read -->
<g id="node7" class="node">
<title>read</title>
<polygon fill="none" stroke="black" points="342,-406.05 288,-406.05 288,-370.05 342,-370.05 342,-406.05"/>
<text text-anchor="middle" x="315" y="-382.25" font-family="Helvetica,Arial,sans-serif" font-size="14.00">read</text>
</g>
<!-- new&#45;&gt;read -->
<g id="edge17" class="edge">
<title>new&#45;&gt;read</title>
<path fill="none" stroke="black" d="M548.63,-471.2C513.94,-466.99 452.7,-457.53 403.25,-439.05 384.98,-432.22 366.01,-421.94 350.35,-412.48"/>
<polygon fill="black" stroke="black" points="352.21,-409.51 341.87,-407.22 348.52,-415.46 352.21,-409.51"/>
<text text-anchor="middle" x="419.88" y="-425.75" font-family="Helvetica,Arial,sans-serif" font-size="14.00">editor</text>
</g>
<!-- archived -->
<g id="node4" class="node">
<title>archived</title>
<polygon fill="none" stroke="black" points="494.5,-123 427.5,-123 427.5,-87 494.5,-87 494.5,-123"/>
<text text-anchor="middle" x="461" y="-99.2" font-family="Helvetica,Arial,sans-serif" font-size="14.00">archived</text>
</g>
<!-- archived&#45;&gt;new -->
<g id="edge4" class="edge">
<title>archived&#45;&gt;new</title>
<path fill="none" stroke="black" d="M494.69,-107.61C550.73,-112.3 657,-130.6 657,-202.02 657,-389.05 657,-389.05 657,-389.05 657,-416.62 634.38,-438.79 613.05,-453.56"/>
<polygon fill="black" stroke="black" points="611.17,-450.61 604.69,-459 614.98,-456.48 611.17,-450.61"/>
<text text-anchor="middle" x="705" y="-295.25" font-family="Helvetica,Arial,sans-serif" font-size="14.00">admin, importer</text>
</g>
<!-- assessing -->
<g id="node5" class="node">
<title>assessing</title>
<polygon fill="none" stroke="black" points="238,-36 162,-36 162,0 238,0 238,-36"/>
<text text-anchor="middle" x="200" y="-12.2" font-family="Helvetica,Arial,sans-serif" font-size="14.00">assessing</text>
</g>
<!-- archived&#45;&gt;assessing -->
<g id="edge2" class="edge">
<title>archived&#45;&gt;assessing</title>
<path fill="none" stroke="black" d="M433.89,-86.73C415.84,-75.91 391.25,-62.47 368,-54 329.27,-39.89 283.33,-30.81 249.29,-25.44"/>
<polygon fill="black" stroke="black" points="250.14,-22.03 239.72,-23.99 249.08,-28.95 250.14,-22.03"/>
<text text-anchor="middle" x="417.75" y="-55.7" font-family="Helvetica,Arial,sans-serif" font-size="14.00">admin</text>
</g>
<!-- delete -->
<g id="node6" class="node">
<title>delete</title>
<polygon fill="none" stroke="black" points="358,-319.05 304,-319.05 304,-283.05 358,-283.05 358,-319.05"/>
<text text-anchor="middle" x="331" y="-295.25" font-family="Helvetica,Arial,sans-serif" font-size="14.00">delete</text>
</g>
<!-- archived&#45;&gt;delete -->
<g id="edge3" class="edge">
<title>archived&#45;&gt;delete</title>
<path fill="none" stroke="black" d="M457.16,-123.45C454.76,-133.21 451.3,-145.49 447,-156 436.54,-181.6 406.01,-244.95 387,-265.05 381.42,-270.94 374.64,-276.26 367.76,-280.86"/>
<polygon fill="black" stroke="black" points="366.33,-277.62 359.69,-285.88 370.03,-283.57 366.33,-277.62"/>
<text text-anchor="middle" x="484.75" y="-197.22" font-family="Helvetica,Arial,sans-serif" font-size="14.00">editor, reviewer</text>
</g>
<!-- archived&#45;&gt;read -->
<g id="edge5" class="edge">
<title>archived&#45;&gt;read</title>
<path fill="none" stroke="black" d="M494.96,-114.46C524.01,-123.72 563.91,-141.74 582,-174 594.62,-196.5 593.02,-208.72 582,-232.05 539.21,-322.6 416.62,-363.55 353.53,-379.05"/>
<polygon fill="black" stroke="black" points="352.88,-375.61 343.95,-381.31 354.49,-382.42 352.88,-375.61"/>
<text text-anchor="middle" x="589.75" y="-251.75" font-family="Helvetica,Arial,sans-serif" font-size="14.00">admin</text>
</g>
<!-- review -->
<g id="node8" class="node">
<title>review</title>
<polygon fill="none" stroke="black" points="215.5,-221.02 160.5,-221.02 160.5,-185.02 215.5,-185.02 215.5,-221.02"/>
<text text-anchor="middle" x="188" y="-197.22" font-family="Helvetica,Arial,sans-serif" font-size="14.00">review</text>
</g>
<!-- archived&#45;&gt;review -->
<g id="edge6" class="edge">
<title>archived&#45;&gt;review</title>
<path fill="none" stroke="black" d="M427.01,-109.24C364.73,-115.41 237.11,-129.32 220.5,-141 209.22,-148.93 201.53,-162.03 196.46,-174.06"/>
<polygon fill="black" stroke="black" points="193.26,-172.62 193.06,-183.21 199.82,-175.06 193.26,-172.62"/>
<text text-anchor="middle" x="239.75" y="-142.7" font-family="Helvetica,Arial,sans-serif" font-size="14.00">admin</text>
</g>
<!-- assessing&#45;&gt;new -->
<g id="edge8" class="edge">
<title>assessing&#45;&gt;new</title>
<path fill="none" stroke="black" d="M238.12,-20.55C367.38,-26.28 781,-48.95 781,-104 781,-389.05 781,-389.05 781,-389.05 781,-460.38 673.76,-472.99 614.41,-474.51"/>
<polygon fill="black" stroke="black" points="614.68,-471 604.74,-474.66 614.79,-478 614.68,-471"/>
<text text-anchor="middle" x="826.75" y="-251.75" font-family="Helvetica,Arial,sans-serif" font-size="14.00">editor, importer</text>
</g>
<!-- assessing&#45;&gt;delete -->
<g id="edge7" class="edge">
<title>assessing&#45;&gt;delete</title>
<path fill="none" stroke="black" d="M230.36,-36.41C262.49,-56.78 311.36,-93.83 332,-141 334.67,-147.11 333.67,-149.55 332,-156 329.7,-164.86 324.3,-165.14 322,-174 315.53,-198.97 320.3,-206.3 322,-232.05 322.86,-245.06 324.63,-259.38 326.37,-271.51"/>
<polygon fill="black" stroke="black" points="322.9,-271.92 327.85,-281.28 329.82,-270.87 322.9,-271.92"/>
<text text-anchor="middle" x="378.75" y="-142.7" font-family="Helvetica,Arial,sans-serif" font-size="14.00">editor, reviewer</text>
</g>
<!-- assessing&#45;&gt;read -->
<g id="edge9" class="edge">
<title>assessing&#45;&gt;read</title>
<path fill="none" stroke="black" d="M170.31,-36.48C162.4,-41.69 154.1,-47.71 147,-54 83.65,-110.17 42.92,-155.57 79.25,-232.05 117.5,-312.55 220.48,-356.92 276.85,-375.85"/>
<polygon fill="black" stroke="black" points="275.77,-379.18 286.36,-378.94 277.93,-372.52 275.77,-379.18"/>
<text text-anchor="middle" x="96.88" y="-197.22" font-family="Helvetica,Arial,sans-serif" font-size="14.00">editor</text>
</g>
<!-- assessing&#45;&gt;review -->
<g id="edge10" class="edge">
<title>assessing&#45;&gt;review</title>
<path fill="none" stroke="black" d="M203.96,-36.5C206.84,-50.17 210.48,-69.68 212,-87 213.4,-102.94 215.68,-107.43 212,-123 209.95,-131.71 206.09,-132.61 203,-141 199.17,-151.42 196.02,-163.19 193.6,-173.6"/>
<polygon fill="black" stroke="black" points="190.23,-172.62 191.52,-183.14 197.07,-174.12 190.23,-172.62"/>
<text text-anchor="middle" x="230.88" y="-99.2" font-family="Helvetica,Arial,sans-serif" font-size="14.00">editor</text>
</g>
<!-- delete&#45;&gt;end -->
<g id="edge11" class="edge">
<title>delete&#45;&gt;end</title>
<path fill="none" stroke="black" d="M336.18,-282.88C339.6,-271.56 344.22,-256.26 348.48,-242.16"/>
<polygon fill="black" stroke="black" points="351.81,-243.24 351.35,-232.65 345.11,-241.21 351.81,-243.24"/>
<text text-anchor="middle" x="363.75" y="-251.75" font-family="Helvetica,Arial,sans-serif" font-size="14.00">admin</text>
</g>
<!-- delete&#45;&gt;new -->
<g id="edge14" class="edge">
<title>delete&#45;&gt;new</title>
<path fill="none" stroke="black" d="M358.34,-307.56C380.43,-312.84 411.73,-322.23 436,-337.05 485.19,-367.08 530.6,-417.39 555.69,-447.96"/>
<polygon fill="black" stroke="black" points="552.84,-450.01 561.85,-455.6 558.29,-445.62 552.84,-450.01"/>
<text text-anchor="middle" x="535.75" y="-382.25" font-family="Helvetica,Arial,sans-serif" font-size="14.00">admin</text>
</g>
<!-- delete&#45;&gt;archived -->
<g id="edge12" class="edge">
<title>delete&#45;&gt;archived</title>
<path fill="none" stroke="black" d="M358.41,-300.03C403.23,-298.33 491.17,-287.65 531,-232.05 546.02,-211.07 541.04,-197.76 531,-174 523.75,-156.85 509.82,-141.89 496.28,-130.4"/>
<polygon fill="black" stroke="black" points="498.69,-127.84 488.7,-124.31 494.31,-133.3 498.69,-127.84"/>
<text text-anchor="middle" x="558.75" y="-197.22" font-family="Helvetica,Arial,sans-serif" font-size="14.00">admin</text>
</g>
<!-- delete&#45;&gt;assessing -->
<g id="edge13" class="edge">
<title>delete&#45;&gt;assessing</title>
<path fill="none" stroke="black" d="M303.71,-291.46C294.06,-288.58 283.1,-285.49 273,-283.05 231.65,-273.05 215.74,-286.48 179,-265.05 162.39,-255.35 161.21,-248.35 151,-232.05 128.12,-195.5 107.59,-182.96 117.5,-141 127.43,-98.93 134.78,-88.38 161,-54 163.58,-50.62 166.52,-47.3 169.6,-44.15"/>
<polygon fill="black" stroke="black" points="172,-46.69 176.83,-37.26 167.18,-41.62 172,-46.69"/>
<text text-anchor="middle" x="136.75" y="-142.7" font-family="Helvetica,Arial,sans-serif" font-size="14.00">admin</text>
</g>
<!-- delete&#45;&gt;read -->
<g id="edge15" class="edge">
<title>delete&#45;&gt;read</title>
<path fill="none" stroke="black" d="M312.35,-319.36C307.94,-324.57 303.84,-330.63 301.5,-337.05 298.95,-344.03 299.46,-351.72 301.31,-358.93"/>
<polygon fill="black" stroke="black" points="297.97,-359.99 304.58,-368.26 304.58,-357.67 297.97,-359.99"/>
<text text-anchor="middle" x="319.75" y="-338.75" font-family="Helvetica,Arial,sans-serif" font-size="14.00">admin</text>
</g>
<!-- delete&#45;&gt;review -->
<g id="edge16" class="edge">
<title>delete&#45;&gt;review</title>
<path fill="none" stroke="black" d="M303.53,-295.09C264.44,-287.77 196.67,-273.98 189.5,-265.05 182.31,-256.09 180.94,-243.78 181.75,-232.57"/>
<polygon fill="black" stroke="black" points="185.18,-233.33 183.03,-222.96 178.24,-232.41 185.18,-233.33"/>
<text text-anchor="middle" x="208.75" y="-251.75" font-family="Helvetica,Arial,sans-serif" font-size="14.00">admin</text>
</g>
<!-- read&#45;&gt;new -->
<g id="edge20" class="edge">
<title>read&#45;&gt;new</title>
<path fill="none" stroke="black" d="M342.29,-396.32C367.12,-403.07 404.71,-413.62 437,-424.05 471.58,-435.21 510.46,-449.33 538.29,-459.72"/>
<polygon fill="black" stroke="black" points="536.74,-462.88 547.34,-463.11 539.2,-456.32 536.74,-462.88"/>
<text text-anchor="middle" x="495.88" y="-425.75" font-family="Helvetica,Arial,sans-serif" font-size="14.00">editor</text>
</g>
<!-- read&#45;&gt;assessing -->
<g id="edge18" class="edge">
<title>read&#45;&gt;assessing</title>
<path fill="none" stroke="black" d="M287.6,-385.52C210.96,-380.53 0,-361.38 0,-302.05 0,-302.05 0,-302.05 0,-104 0,-38.74 91.3,-22.86 150.53,-19.43"/>
<polygon fill="black" stroke="black" points="150.57,-22.93 160.4,-18.97 150.25,-15.94 150.57,-22.93"/>
<text text-anchor="middle" x="16.88" y="-197.22" font-family="Helvetica,Arial,sans-serif" font-size="14.00">editor</text>
</g>
<!-- read&#45;&gt;delete -->
<g id="edge19" class="edge">
<title>read&#45;&gt;delete</title>
<path fill="none" stroke="black" d="M329.96,-369.61C333.64,-364.31 337.08,-358.24 339,-352.05 341.13,-345.19 341.08,-337.61 340.03,-330.48"/>
<polygon fill="black" stroke="black" points="343.5,-329.95 337.95,-320.93 336.66,-331.44 343.5,-329.95"/>
<text text-anchor="middle" x="385.75" y="-338.75" font-family="Helvetica,Arial,sans-serif" font-size="14.00">editor, reviewer</text>
</g>
<!-- review&#45;&gt;new -->
<g id="edge24" class="edge">
<title>review&#45;&gt;new</title>
<path fill="none" stroke="black" d="M170.43,-221.2C143.06,-250.1 96.31,-309.45 126.25,-352.05 174.25,-420.34 437.11,-457.8 537.24,-469.77"/>
<polygon fill="black" stroke="black" points="536.78,-473.24 547.12,-470.92 537.59,-466.28 536.78,-473.24"/>
<text text-anchor="middle" x="181.38" y="-338.75" font-family="Helvetica,Arial,sans-serif" font-size="14.00">reviewer, importer</text>
</g>
<!-- review&#45;&gt;archived -->
<g id="edge21" class="edge">
<title>review&#45;&gt;archived</title>
<path fill="none" stroke="black" d="M214.23,-184.77C241.57,-166.79 280.54,-141.19 281,-141 324.96,-123.12 378.76,-114.19 416.04,-109.86"/>
<polygon fill="black" stroke="black" points="415.98,-113.38 425.54,-108.82 415.22,-106.43 415.98,-113.38"/>
<text text-anchor="middle" x="306.5" y="-142.7" font-family="Helvetica,Arial,sans-serif" font-size="14.00">reviewer</text>
</g>
<!-- review&#45;&gt;assessing -->
<g id="edge22" class="edge">
<title>review&#45;&gt;assessing</title>
<path fill="none" stroke="black" d="M177.41,-184.82C164.91,-162.28 146.99,-121.57 157,-87 161.32,-72.07 170.01,-57.28 178.45,-45.32"/>
<polygon fill="black" stroke="black" points="181.03,-47.72 184.18,-37.6 175.41,-43.55 181.03,-47.72"/>
<text text-anchor="middle" x="182.5" y="-99.2" font-family="Helvetica,Arial,sans-serif" font-size="14.00">reviewer</text>
</g>
<!-- review&#45;&gt;delete -->
<g id="edge23" class="edge">
<title>review&#45;&gt;delete</title>
<path fill="none" stroke="black" d="M202.37,-221.32C214.12,-234.61 231.71,-252.73 250,-265.05 263.26,-273.98 279.18,-281.45 293.38,-287.16"/>
<polygon fill="black" stroke="black" points="291.83,-290.31 302.42,-290.63 294.34,-283.78 291.83,-290.31"/>
<text text-anchor="middle" x="275.5" y="-251.75" font-family="Helvetica,Arial,sans-serif" font-size="14.00">reviewer</text>
</g>
<!-- review&#45;&gt;read -->
<g id="edge25" class="edge">
<title>review&#45;&gt;read</title>
<path fill="none" stroke="black" d="M180.55,-221.29C176.25,-233.9 172.8,-251.16 179,-265.05 199.09,-310.06 244.92,-345.39 277.82,-366.19"/>
<polygon fill="black" stroke="black" points="275.93,-369.14 286.29,-371.39 279.59,-363.18 275.93,-369.14"/>
<text text-anchor="middle" x="243.5" y="-295.25" font-family="Helvetica,Arial,sans-serif" font-size="14.00">reviewer</text>
</g>
</g>
</svg>
